<mxfile host="app.diagrams.net" modified="2022-04-28T15:33:09.939Z" agent="5.0 (Windows NT 10.0; Win64; x64) AppleWebKit/537.36 (KHTML, like Gecko) Chrome/100.0.4896.127 Safari/537.36" etag="NrJzOpc_N7A13igpLAZu" version="17.4.6" type="github" pages="3">
  <diagram id="yNyhBqs6pbC-OkXB5QM5" name="model">
    <mxGraphModel dx="2062" dy="1130" grid="1" gridSize="10" guides="1" tooltips="1" connect="1" arrows="1" fold="1" page="1" pageScale="1" pageWidth="827" pageHeight="1169" math="0" shadow="0">
      <root>
        <mxCell id="0" />
        <mxCell id="1" parent="0" />
        <mxCell id="vv8YXxYiMxJcPnbVptzl-1" value="" style="shape=image;imageAspect=0;aspect=fixed;verticalLabelPosition=bottom;verticalAlign=top;image=data:image/png,iVBORw0KGgoAAAANSUhEUgAAACAAAAAgCAAAAABWESUoAAACtUlEQVR4nCXTWXLbVhAF0J4eAIoiXZRoKh7iv6wn+69KVSqTI4WUSAEcALzuvvnwHs7hX1fV9/tLpmnTdfPk4RmZKUJIluRfjMgjCE1ZrFfDMHp4TeJMgETTeoioCJG1q4+7g2j4xCFcazILi2kyQCz8sP34tNs+Dbfb+Tx6iKQwEsbKrNre3X379tP2cZqu/XA89v2wXOo8D8NkJGaiy93u69ftek3waTye3t5eHx9wOGB2/mLFuu7hy+dPnz6URoSJhuH0+nq+HA/7aawWQrLc7D7/vHu6i6Ag5matLJfDS3/2mhZs0PZ+s1tpRhAhnEi61aKoaTKbWdO2baHqLmwRIANKh83OuQpXywRp0xZTlYwEiEWU5Ek7vWF2a4UqWdO2xllnFY7aqIDarvh5nN1ck9v1h4VQolZSTmEiotvxtb+FFCNGhKe0xRjCABtnvZz//f3Pw0iAeXgdhmsWJRIhEBFy7t9e/nkeKhIWLEAEBJWQBGYmkDYmVEciNlbRmK7XaykCAkAEwkJ277OfmdmKNo0hfC7F3DMgnIDPzXacr2ZslFGhCveEWBCYKX14Ow5TasxkSsjrW7feSKtErAlkTKfn07Gfdb6yhWiT19N/bbYGMDHS5+Hw9ziGLiq5sbWdzMOe282SBSDisX/567fwQGrrtlws78bbedGdr/elYQKA+dqf3MnUVmE+C83Ol/LeL1dGlO7N5rK5v7qnqpI5bkdV3PS0b+1emBht8/C4fasOZ4XVICKOOh5knmDGwOn0vJ8jEUkMA1gow+txfP1j1S3aYt+/7/uh1vRAkDWiSiSic30Pb0oxO51u+SMWBayYCJLTPbxWFUS4JxGLmEWmpbOwoIZXjxCBewKgIta2XqutZZ6UhcLdM4mQCRBTuhSKWu2e81aaH+SJMhEQATIDzNX5fynWAhXNC54YAAAAAElFTkSuQmCC;fontFamily=Georgia;" vertex="1" parent="1">
          <mxGeometry x="276" y="1096.5" width="55" height="55" as="geometry" />
        </mxCell>
        <mxCell id="vv8YXxYiMxJcPnbVptzl-2" value="" style="rounded=1;whiteSpace=wrap;html=1;fillColor=#fad7ac;strokeColor=#b46504;fontFamily=Georgia;" vertex="1" parent="1">
          <mxGeometry x="204" y="1061.5" width="204" height="20" as="geometry" />
        </mxCell>
        <mxCell id="vv8YXxYiMxJcPnbVptzl-3" value="&lt;h5&gt;Size Transformation&lt;/h5&gt;" style="text;html=1;strokeColor=none;fillColor=none;align=center;verticalAlign=middle;whiteSpace=wrap;rounded=0;fontFamily=Georgia;" vertex="1" parent="1">
          <mxGeometry x="219" y="1061.5" width="165" height="20" as="geometry" />
        </mxCell>
        <mxCell id="vv8YXxYiMxJcPnbVptzl-4" value="" style="rounded=1;whiteSpace=wrap;html=1;fontFamily=Georgia;" vertex="1" parent="1">
          <mxGeometry x="437.5" y="1019" width="277" height="70" as="geometry" />
        </mxCell>
        <mxCell id="vv8YXxYiMxJcPnbVptzl-5" value="" style="rounded=0;whiteSpace=wrap;html=1;fontFamily=Georgia;fontSize=12;strokeColor=#b85450;fillColor=#f8cecc;" vertex="1" parent="1">
          <mxGeometry x="641" y="1026.5" width="55" height="55" as="geometry" />
        </mxCell>
        <mxCell id="vv8YXxYiMxJcPnbVptzl-6" value="" style="rounded=0;whiteSpace=wrap;html=1;fontFamily=Georgia;fontSize=12;strokeColor=#b85450;fillColor=#f8cecc;" vertex="1" parent="1">
          <mxGeometry x="518" y="1026.5" width="55" height="55" as="geometry" />
        </mxCell>
        <mxCell id="vv8YXxYiMxJcPnbVptzl-7" value="" style="rounded=0;whiteSpace=wrap;html=1;fontFamily=Georgia;fontSize=12;strokeColor=#b85450;fillColor=#f8cecc;" vertex="1" parent="1">
          <mxGeometry x="579" y="1026.5" width="55" height="55" as="geometry" />
        </mxCell>
        <mxCell id="vv8YXxYiMxJcPnbVptzl-8" value="" style="rounded=0;whiteSpace=wrap;html=1;fontFamily=Georgia;fontSize=12;strokeColor=#b85450;fillColor=#f8cecc;" vertex="1" parent="1">
          <mxGeometry x="456" y="1026.5" width="55" height="55" as="geometry" />
        </mxCell>
        <mxCell id="vv8YXxYiMxJcPnbVptzl-9" value="&lt;h4&gt;Transformed Images&amp;nbsp;&lt;/h4&gt;" style="text;html=1;strokeColor=none;fillColor=none;align=center;verticalAlign=middle;whiteSpace=wrap;rounded=0;fontFamily=Georgia;fontSize=12;fontColor=default;" vertex="1" parent="1">
          <mxGeometry x="489.25" y="989" width="181" height="30" as="geometry" />
        </mxCell>
        <mxCell id="vv8YXxYiMxJcPnbVptzl-10" value="" style="endArrow=classic;html=1;rounded=0;fontFamily=Georgia;fontSize=12;fontColor=default;exitX=0.466;exitY=0.006;exitDx=0;exitDy=0;exitPerimeter=0;sourcePerimeterSpacing=216;" edge="1" parent="1" source="vv8YXxYiMxJcPnbVptzl-1" target="vv8YXxYiMxJcPnbVptzl-3">
          <mxGeometry width="50" height="50" relative="1" as="geometry">
            <mxPoint x="301.5" y="1091.5" as="sourcePoint" />
            <mxPoint x="303.5" y="1071.5" as="targetPoint" />
          </mxGeometry>
        </mxCell>
        <mxCell id="vv8YXxYiMxJcPnbVptzl-11" value="&lt;h4&gt;input&lt;/h4&gt;" style="text;html=1;strokeColor=none;fillColor=none;align=center;verticalAlign=middle;whiteSpace=wrap;rounded=0;fontFamily=Georgia;fontSize=12;fontColor=default;" vertex="1" parent="1">
          <mxGeometry x="276.75" y="1151.5" width="60" height="30" as="geometry" />
        </mxCell>
        <mxCell id="vv8YXxYiMxJcPnbVptzl-12" value="" style="rounded=1;whiteSpace=wrap;html=1;fillColor=#fad7ac;strokeColor=#b46504;fontFamily=Georgia;" vertex="1" parent="1">
          <mxGeometry x="203" y="1019" width="204" height="20" as="geometry" />
        </mxCell>
        <mxCell id="vv8YXxYiMxJcPnbVptzl-13" value="&lt;h5&gt;&lt;font size=&quot;1&quot;&gt;Connect&amp;nbsp;&lt;/font&gt;&lt;br&gt;&lt;/h5&gt;" style="text;html=1;strokeColor=none;fillColor=none;align=center;verticalAlign=middle;whiteSpace=wrap;rounded=0;fontFamily=Georgia;" vertex="1" parent="1">
          <mxGeometry x="240" y="1019" width="123.5" height="20" as="geometry" />
        </mxCell>
        <mxCell id="vv8YXxYiMxJcPnbVptzl-14" value="" style="endArrow=classic;html=1;rounded=0;fontFamily=Georgia;fontSize=12;fontColor=default;" edge="1" parent="1" target="vv8YXxYiMxJcPnbVptzl-13">
          <mxGeometry width="50" height="50" relative="1" as="geometry">
            <mxPoint x="301" y="1061.5" as="sourcePoint" />
            <mxPoint x="303.75" y="1011.5" as="targetPoint" />
          </mxGeometry>
        </mxCell>
        <mxCell id="vv8YXxYiMxJcPnbVptzl-15" value="" style="shape=image;imageAspect=0;aspect=fixed;verticalLabelPosition=bottom;verticalAlign=top;fontFamily=Georgia;fontSize=12;fontColor=default;strokeColor=default;fillColor=default;image=data:image/png,iVBORw0KGgoAAAANSUhEUgAAABsAAAAbCAAAAACov6uJAAAABGdBTUEAALGPC/xhBQAAACBjSFJNAAB6JgAAgIQAAPoAAACA6AAAdTAAAOpgAAA6mAAAF3CculE8AAAAAmJLR0QA/4ePzL8AAAAJcEhZcwAADsQAAA7EAZUrDhsAAAAHdElNRQfmBAwJEQ4IL37fAAACC0lEQVQozwXB627bRhAG0G8uyyVFS64dlW6cNP/yPH1/oECRBLkYii4WZUrk7sz0HPpnXepu9+au0rTtMlerbu7ODPqsQDVDNKnbrMfxVq0WB7mHpGleHEzctJvhmQ1JCZQU7ipOESCmx+2fT8P2abxeL5dbNWZXEiKRvFp9+vTX9t08T+fxeDyfx74XBauy9MPw8eN2s0HU+XY8HQ77d49BHzRp2z5+eH7//j41zASM42m/v7wd1RjcPwzPfw9PKzMYiJqNEL/9flEjDcl3D8Na3AwIqwC36y6JqjY554RSK5OaBTQitfEwVHUPSJOTirCbR4CYBfwkrWZGgTY5K3lZhMlKIxzIbdIqTnlz3zE8SoGQMwHA9bhXUJhV55yUgimClLy8XX7+91Wr1TKOkycBmBEAwpfz4eX7LzXiCLPgKAhHEBEC0ihDSVhsnqYpJQ5EBBCIjofXRZM0jYbVJSWt1S2YPKIuzfamcCshErV6sBqCCF7Hw3Gc5Q8iSiTdShsBQADcpt3Pw+FVekpNIlbSNpkBFF6X0/cv5+uipLnlZdxRfuiJIwC6nV++/WvVtO/61e166drLdJcaQkTEMp1PtULuCZgrmPq7nDpmeI1UXw9eqqz9Os5GjK5JecUMN8k2jrZULQaArNx+8zKHKkWcTr92i3loBDHcajne9l/WbZeT/vixO4+l+P9Gk0hR+AjzAgAAACV0RVh0ZGF0ZTpjcmVhdGUAMjAyMi0wNC0xMlQwOToxNzoxNCswMDowMFeApmwAAAAldEVYdGRhdGU6bW9kaWZ5ADIwMjItMDQtMTJUMDk6MTc6MTQrMDA6MDAm3R7QAAAAAElFTkSuQmCC;" vertex="1" parent="1">
          <mxGeometry x="456" y="1026.5" width="50" height="50" as="geometry" />
        </mxCell>
        <mxCell id="vv8YXxYiMxJcPnbVptzl-16" value="" style="shape=image;verticalLabelPosition=bottom;labelBackgroundColor=default;verticalAlign=top;aspect=fixed;imageAspect=0;image=data:image/png,iVBORw0KGgoAAAANSUhEUgAAABsAAAAbCAAAAACov6uJAAAABGdBTUEAALGPC/xhBQAAACBjSFJNAAB6JgAAgIQAAPoAAACA6AAAdTAAAOpgAAA6mAAAF3CculE8AAAAAmJLR0QA/4ePzL8AAAAJcEhZcwAADsQAAA7EAZUrDhsAAAAHdElNRQfmBAwJESY9mtYlAAACCklEQVQozwXBWVLbQBAA0O6eHo1sgwBjZEIR/nP/66QqlY0leEMSsjTTS97Db59mHKq6zrOomJoZEbghWWicqErL6zWaA4IBMZgZIEFoCKmqm/aBFCIjYGQwQyJCBiRcb+627Wbbn8/DMIkSGaGbM6fl8unpfnM7z2PXH49d169WIee+nzmt2vbxcdM04DJPx9PhsL9d+27nWbhZPzx8ub+KRFRfQLNe76+Hl+PufZ4Kb9qHr+12qQoKiFUTkD53b90gxThd3LSXwVQBXAWA6stFDBwMkVOEIkLIqg7sHmu/aQULYeEqRQ6BTM0dkCgAbUMdzp6FuUqJ0UoOhFqqQA6pjjJMWbi5WhCYlwIBjRAA4Hzcd2elyGKUIqMTuiOjlc/h5cev3QTu3I8WAwAROAC45e7w9ve1L27Oqk5ewA0cEcEhVExQJgDkeRzHGMnB3QEcfEHtR5YBEdlVcowsYuqE5i652kx5ZEYOwUXMiRUcEUz6w7GfLWgGPtTNDaUAgMHcTefT6+nY5ZBH5PH0L1lidwR0k9zv/kyThkUB4dy/Y7pZIbkD4NS9/f6uom4hCZdhUQ/jRawQ3N3z2J1EgANfargDwtVFigsiMPEoHwcrYo4BQ4MEiyqmJRGYhqR9r1nAKBiblmlHeXZmdD+dXt+zmqsBOptKOU77n5f1IkV+fn7v+lJM1BX+A9z7Yy8XDsfyAAAAJXRFWHRkYXRlOmNyZWF0ZQAyMDIyLTA0LTEyVDA5OjE3OjM4KzAwOjAw0gXLZQAAACV0RVh0ZGF0ZTptb2RpZnkAMjAyMi0wNC0xMlQwOToxNzozOCswMDowMKNYc9kAAAAASUVORK5CYII=;fontFamily=Georgia;" vertex="1" parent="1">
          <mxGeometry x="523" y="1026.5" width="50" height="50" as="geometry" />
        </mxCell>
        <mxCell id="vv8YXxYiMxJcPnbVptzl-17" value="" style="shape=image;verticalLabelPosition=bottom;labelBackgroundColor=default;verticalAlign=top;aspect=fixed;imageAspect=0;image=data:image/png,iVBORw0KGgoAAAANSUhEUgAAABsAAAAbCAAAAACov6uJAAAABGdBTUEAALGPC/xhBQAAACBjSFJNAAB6JgAAgIQAAPoAAACA6AAAdTAAAOpgAAA6mAAAF3CculE8AAAAAmJLR0QA/4ePzL8AAAAJcEhZcwAADsQAAA7EAZUrDhsAAAAHdElNRQfmBAwJEgDEugAbAAAB/0lEQVQozyXSW1IjRxAF0JtZWd3SABqDscYmxhvw/pfjiAnb8wAjpEYtRKsqM68/fNZw5I+r7fbz5/vNBvTLcpj2+5ef77jb7fdvtrl7ePjt149VVVfX2Nzdvfx0+nHYPV+Wbvfbh9+3nz5EICAybIro2+7pePKeNl7fbm9KRgAMB3R1s67FSorYWNHdVSyCMLKueLt16SrdhrFaKZqRJES1QD+VVXlnc7NhHE2yt6ISfShKjKvqp6W5bT6uFcneUSRVAOD98HJ8D63mqWM1oQopJtnfTj++/L1bQNp8zloAVRAAsx33T98e586kRVDZwQRFBEQZTNEXQOxyPp9rVYIkQHCt29fmJxExhrdazT2DKkl6G+6XdjYTK4XuSbUARZA+7w/zJUs02H61udWxAFKSzLhMj9Ph2Eo7i52nf8ccjRQI09u8+7osUdYdbm1+lvH2SpQEZDk+/fNneDDL6NZP69XpfF0HAUm283FyhxW7ifILVK6ux7pWRTqrv+6ze1KKlI0o1kMdP6gio4wxz9EcqSUtoy87bReaCTlNj88tkpEQWob3w/Ly181qPVb7/v35OPeeHgyYqZbWX8OHWs2m6T0zSSiCppLu4b0XZYR7AqJqFpkm7OHdI1TpniRR1cbRezdRhLtnAswkIUjXiujdhv//AZkMqpKZQZHu8h+RAn1h8BruMAAAACV0RVh0ZGF0ZTpjcmVhdGUAMjAyMi0wNC0xMlQwOToxODowMCswMDowMJ5u2WwAAAAldEVYdGRhdGU6bW9kaWZ5ADIwMjItMDQtMTJUMDk6MTg6MDArMDA6MDDvM2HQAAAAAElFTkSuQmCC;fontFamily=Georgia;" vertex="1" parent="1">
          <mxGeometry x="584" y="1031.5" width="50" height="50" as="geometry" />
        </mxCell>
        <mxCell id="vv8YXxYiMxJcPnbVptzl-18" value="" style="shape=image;verticalLabelPosition=bottom;labelBackgroundColor=default;verticalAlign=top;aspect=fixed;imageAspect=0;image=data:image/png,iVBORw0KGgoAAAANSUhEUgAAABsAAAAbCAAAAACov6uJAAAABGdBTUEAALGPC/xhBQAAACBjSFJNAAB6JgAAgIQAAPoAAACA6AAAdTAAAOpgAAA6mAAAF3CculE8AAAAAmJLR0QA/4ePzL8AAAAJcEhZcwAADsQAAA7EAZUrDhsAAAAHdElNRQfmBAwJEgokb+kFAAAB+UlEQVQozyXS2W4cRwwF0EsWq7pbI40i2xjDlv3/PxUgsAMvgjyLpqVZukjePOR8w5FHNdOy2my+fPmwXoN+vewPu932/TvKo1Ubx3ePnz99uq9NVYB5Pmy3r297C4WuHjafv24+3kQgINLWRfTtz5OFGMtw+7C5KxkBMBzQ8W6qxczaMAwV3V3FIggj68iHjVsmUdpQrRTNSBKiWqAfy2iDosPaMJhkX4pK9FaUGMZqXlKG9f2kSPaOIqkCAOf91iCM8NShmlCFFJPsb6+//vluHt7n+ZS1AKogAOZy3D39+G0hSkZQ2cEERQREaaYwKVriejqdalWCJEBw0s3LYrW0ZgxfajX3DKok6Uv7cDFkdJZC96RagCJIn3f7+Vr+EpEqZbqxVgAIgIzT86/d7qWspLYqamJjjQCE6cvhx7fjeTGxYdRlfpbhYSVKAnI5Pv37d3jYalrdXM6v0/h6uq1NQJLL6XhwR7kX4OpQWd0OdVJFOqu/7LJ7ucvzfA1RTK0ON6rIKEPMcyxuPQBI9MsfXa40E/Jw+P28RNJIUWR431+23+7Gaaj28+fzce49rWkpgGpZ+kt4q9XscDhnJmnVVJmS7uG9F2WEewKiaumiouzh3SNU6Z4kUdVsrcu1iCLcPRNgJglButqt5Lm2//8BmQyqkpnB/wD00FX1mW6geAAAACV0RVh0ZGF0ZTpjcmVhdGUAMjAyMi0wNC0xMlQwOToxODoxMCswMDowMFLE2fIAAAAldEVYdGRhdGU6bW9kaWZ5ADIwMjItMDQtMTJUMDk6MTg6MTArMDA6MDAjmWFOAAAAAElFTkSuQmCC;fontFamily=Georgia;" vertex="1" parent="1">
          <mxGeometry x="641" y="1031.5" width="50" height="50" as="geometry" />
        </mxCell>
        <mxCell id="vv8YXxYiMxJcPnbVptzl-19" value="" style="rounded=1;whiteSpace=wrap;html=1;fontFamily=Georgia;fontSize=12;fontColor=default;strokeColor=default;fillColor=default;" vertex="1" parent="1">
          <mxGeometry x="233.25" y="886.5" width="140" height="110" as="geometry" />
        </mxCell>
        <mxCell id="vv8YXxYiMxJcPnbVptzl-20" value="" style="rounded=0;whiteSpace=wrap;html=1;fontFamily=Georgia;fontSize=12;strokeColor=#b85450;fillColor=#f8cecc;" vertex="1" parent="1">
          <mxGeometry x="295.75" y="891.5" width="55" height="55" as="geometry" />
        </mxCell>
        <mxCell id="vv8YXxYiMxJcPnbVptzl-21" value="" style="shape=image;verticalLabelPosition=bottom;labelBackgroundColor=default;verticalAlign=top;aspect=fixed;imageAspect=0;image=data:image/png,iVBORw0KGgoAAAANSUhEUgAAABsAAAAbCAAAAACov6uJAAAABGdBTUEAALGPC/xhBQAAACBjSFJNAAB6JgAAgIQAAPoAAACA6AAAdTAAAOpgAAA6mAAAF3CculE8AAAAAmJLR0QA/4ePzL8AAAAJcEhZcwAADsQAAA7EAZUrDhsAAAAHdElNRQfmBAwJEgokb+kFAAAB+UlEQVQozyXS2W4cRwwF0EsWq7pbI40i2xjDlv3/PxUgsAMvgjyLpqVZukjePOR8w5FHNdOy2my+fPmwXoN+vewPu932/TvKo1Ubx3ePnz99uq9NVYB5Pmy3r297C4WuHjafv24+3kQgINLWRfTtz5OFGMtw+7C5KxkBMBzQ8W6qxczaMAwV3V3FIggj68iHjVsmUdpQrRTNSBKiWqAfy2iDosPaMJhkX4pK9FaUGMZqXlKG9f2kSPaOIqkCAOf91iCM8NShmlCFFJPsb6+//vluHt7n+ZS1AKogAOZy3D39+G0hSkZQ2cEERQREaaYwKVriejqdalWCJEBw0s3LYrW0ZgxfajX3DKok6Uv7cDFkdJZC96RagCJIn3f7+Vr+EpEqZbqxVgAIgIzT86/d7qWspLYqamJjjQCE6cvhx7fjeTGxYdRlfpbhYSVKAnI5Pv37d3jYalrdXM6v0/h6uq1NQJLL6XhwR7kX4OpQWd0OdVJFOqu/7LJ7ucvzfA1RTK0ON6rIKEPMcyxuPQBI9MsfXa40E/Jw+P28RNJIUWR431+23+7Gaaj28+fzce49rWkpgGpZ+kt4q9XscDhnJmnVVJmS7uG9F2WEewKiaumiouzh3SNU6Z4kUdVsrcu1iCLcPRNgJglButqt5Lm2//8BmQyqkpnB/wD00FX1mW6geAAAACV0RVh0ZGF0ZTpjcmVhdGUAMjAyMi0wNC0xMlQwOToxODoxMCswMDowMFLE2fIAAAAldEVYdGRhdGU6bW9kaWZ5ADIwMjItMDQtMTJUMDk6MTg6MTArMDA6MDAjmWFOAAAAAElFTkSuQmCC;fontFamily=Georgia;" vertex="1" parent="1">
          <mxGeometry x="295.75" y="896.5" width="50" height="50" as="geometry" />
        </mxCell>
        <mxCell id="vv8YXxYiMxJcPnbVptzl-22" value="" style="rounded=0;whiteSpace=wrap;html=1;fontFamily=Georgia;fontSize=12;strokeColor=#b85450;fillColor=#f8cecc;" vertex="1" parent="1">
          <mxGeometry x="285.75" y="901.5" width="55" height="55" as="geometry" />
        </mxCell>
        <mxCell id="vv8YXxYiMxJcPnbVptzl-23" value="" style="shape=image;verticalLabelPosition=bottom;labelBackgroundColor=default;verticalAlign=top;aspect=fixed;imageAspect=0;image=data:image/png,iVBORw0KGgoAAAANSUhEUgAAABsAAAAbCAAAAACov6uJAAAABGdBTUEAALGPC/xhBQAAACBjSFJNAAB6JgAAgIQAAPoAAACA6AAAdTAAAOpgAAA6mAAAF3CculE8AAAAAmJLR0QA/4ePzL8AAAAJcEhZcwAADsQAAA7EAZUrDhsAAAAHdElNRQfmBAwJEgDEugAbAAAB/0lEQVQozyXSW1IjRxAF0JtZWd3SABqDscYmxhvw/pfjiAnb8wAjpEYtRKsqM68/fNZw5I+r7fbz5/vNBvTLcpj2+5ef77jb7fdvtrl7ePjt149VVVfX2Nzdvfx0+nHYPV+Wbvfbh9+3nz5EICAybIro2+7pePKeNl7fbm9KRgAMB3R1s67FSorYWNHdVSyCMLKueLt16SrdhrFaKZqRJES1QD+VVXlnc7NhHE2yt6ISfShKjKvqp6W5bT6uFcneUSRVAOD98HJ8D63mqWM1oQopJtnfTj++/L1bQNp8zloAVRAAsx33T98e586kRVDZwQRFBEQZTNEXQOxyPp9rVYIkQHCt29fmJxExhrdazT2DKkl6G+6XdjYTK4XuSbUARZA+7w/zJUs02H61udWxAFKSzLhMj9Ph2Eo7i52nf8ccjRQI09u8+7osUdYdbm1+lvH2SpQEZDk+/fNneDDL6NZP69XpfF0HAUm283FyhxW7ifILVK6ux7pWRTqrv+6ze1KKlI0o1kMdP6gio4wxz9EcqSUtoy87bReaCTlNj88tkpEQWob3w/Ly181qPVb7/v35OPeeHgyYqZbWX8OHWs2m6T0zSSiCppLu4b0XZYR7AqJqFpkm7OHdI1TpniRR1cbRezdRhLtnAswkIUjXiujdhv//AZkMqpKZQZHu8h+RAn1h8BruMAAAACV0RVh0ZGF0ZTpjcmVhdGUAMjAyMi0wNC0xMlQwOToxODowMCswMDowMJ5u2WwAAAAldEVYdGRhdGU6bW9kaWZ5ADIwMjItMDQtMTJUMDk6MTg6MDArMDA6MDDvM2HQAAAAAElFTkSuQmCC;fontFamily=Georgia;" vertex="1" parent="1">
          <mxGeometry x="290.75" y="906.5" width="50" height="50" as="geometry" />
        </mxCell>
        <mxCell id="vv8YXxYiMxJcPnbVptzl-24" value="" style="rounded=0;whiteSpace=wrap;html=1;fontFamily=Georgia;fontSize=12;strokeColor=#b85450;fillColor=#f8cecc;" vertex="1" parent="1">
          <mxGeometry x="275.75" y="911.5" width="55" height="55" as="geometry" />
        </mxCell>
        <mxCell id="vv8YXxYiMxJcPnbVptzl-25" value="" style="shape=image;verticalLabelPosition=bottom;labelBackgroundColor=default;verticalAlign=top;aspect=fixed;imageAspect=0;image=data:image/png,iVBORw0KGgoAAAANSUhEUgAAABsAAAAbCAAAAACov6uJAAAABGdBTUEAALGPC/xhBQAAACBjSFJNAAB6JgAAgIQAAPoAAACA6AAAdTAAAOpgAAA6mAAAF3CculE8AAAAAmJLR0QA/4ePzL8AAAAJcEhZcwAADsQAAA7EAZUrDhsAAAAHdElNRQfmBAwJESY9mtYlAAACCklEQVQozwXBWVLbQBAA0O6eHo1sgwBjZEIR/nP/66QqlY0leEMSsjTTS97Db59mHKq6zrOomJoZEbghWWicqErL6zWaA4IBMZgZIEFoCKmqm/aBFCIjYGQwQyJCBiRcb+627Wbbn8/DMIkSGaGbM6fl8unpfnM7z2PXH49d169WIee+nzmt2vbxcdM04DJPx9PhsL9d+27nWbhZPzx8ub+KRFRfQLNe76+Hl+PufZ4Kb9qHr+12qQoKiFUTkD53b90gxThd3LSXwVQBXAWA6stFDBwMkVOEIkLIqg7sHmu/aQULYeEqRQ6BTM0dkCgAbUMdzp6FuUqJ0UoOhFqqQA6pjjJMWbi5WhCYlwIBjRAA4Hzcd2elyGKUIqMTuiOjlc/h5cev3QTu3I8WAwAROAC45e7w9ve1L27Oqk5ewA0cEcEhVExQJgDkeRzHGMnB3QEcfEHtR5YBEdlVcowsYuqE5i652kx5ZEYOwUXMiRUcEUz6w7GfLWgGPtTNDaUAgMHcTefT6+nY5ZBH5PH0L1lidwR0k9zv/kyThkUB4dy/Y7pZIbkD4NS9/f6uom4hCZdhUQ/jRawQ3N3z2J1EgANfargDwtVFigsiMPEoHwcrYo4BQ4MEiyqmJRGYhqR9r1nAKBiblmlHeXZmdD+dXt+zmqsBOptKOU77n5f1IkV+fn7v+lJM1BX+A9z7Yy8XDsfyAAAAJXRFWHRkYXRlOmNyZWF0ZQAyMDIyLTA0LTEyVDA5OjE3OjM4KzAwOjAw0gXLZQAAACV0RVh0ZGF0ZTptb2RpZnkAMjAyMi0wNC0xMlQwOToxNzozOCswMDowMKNYc9kAAAAASUVORK5CYII=;fontFamily=Georgia;" vertex="1" parent="1">
          <mxGeometry x="280.75" y="911.5" width="50" height="50" as="geometry" />
        </mxCell>
        <mxCell id="vv8YXxYiMxJcPnbVptzl-26" value="" style="rounded=0;whiteSpace=wrap;html=1;fontFamily=Georgia;fontSize=12;strokeColor=#b85450;fillColor=#f8cecc;" vertex="1" parent="1">
          <mxGeometry x="265.75" y="921.5" width="55" height="55" as="geometry" />
        </mxCell>
        <mxCell id="vv8YXxYiMxJcPnbVptzl-27" value="" style="shape=image;imageAspect=0;aspect=fixed;verticalLabelPosition=bottom;verticalAlign=top;fontFamily=Georgia;fontSize=12;fontColor=default;strokeColor=default;fillColor=default;image=data:image/png,iVBORw0KGgoAAAANSUhEUgAAABsAAAAbCAAAAACov6uJAAAABGdBTUEAALGPC/xhBQAAACBjSFJNAAB6JgAAgIQAAPoAAACA6AAAdTAAAOpgAAA6mAAAF3CculE8AAAAAmJLR0QA/4ePzL8AAAAJcEhZcwAADsQAAA7EAZUrDhsAAAAHdElNRQfmBAwJEQ4IL37fAAACC0lEQVQozwXB627bRhAG0G8uyyVFS64dlW6cNP/yPH1/oECRBLkYii4WZUrk7sz0HPpnXepu9+au0rTtMlerbu7ODPqsQDVDNKnbrMfxVq0WB7mHpGleHEzctJvhmQ1JCZQU7ipOESCmx+2fT8P2abxeL5dbNWZXEiKRvFp9+vTX9t08T+fxeDyfx74XBauy9MPw8eN2s0HU+XY8HQ77d49BHzRp2z5+eH7//j41zASM42m/v7wd1RjcPwzPfw9PKzMYiJqNEL/9flEjDcl3D8Na3AwIqwC36y6JqjY554RSK5OaBTQitfEwVHUPSJOTirCbR4CYBfwkrWZGgTY5K3lZhMlKIxzIbdIqTnlz3zE8SoGQMwHA9bhXUJhV55yUgimClLy8XX7+91Wr1TKOkycBmBEAwpfz4eX7LzXiCLPgKAhHEBEC0ihDSVhsnqYpJQ5EBBCIjofXRZM0jYbVJSWt1S2YPKIuzfamcCshErV6sBqCCF7Hw3Gc5Q8iSiTdShsBQADcpt3Pw+FVekpNIlbSNpkBFF6X0/cv5+uipLnlZdxRfuiJIwC6nV++/WvVtO/61e166drLdJcaQkTEMp1PtULuCZgrmPq7nDpmeI1UXw9eqqz9Os5GjK5JecUMN8k2jrZULQaArNx+8zKHKkWcTr92i3loBDHcajne9l/WbZeT/vixO4+l+P9Gk0hR+AjzAgAAACV0RVh0ZGF0ZTpjcmVhdGUAMjAyMi0wNC0xMlQwOToxNzoxNCswMDowMFeApmwAAAAldEVYdGRhdGU6bW9kaWZ5ADIwMjItMDQtMTJUMDk6MTc6MTQrMDA6MDAm3R7QAAAAAElFTkSuQmCC;" vertex="1" parent="1">
          <mxGeometry x="265.75" y="921.5" width="50" height="50" as="geometry" />
        </mxCell>
        <mxCell id="vv8YXxYiMxJcPnbVptzl-28" value="" style="shape=image;imageAspect=0;aspect=fixed;verticalLabelPosition=bottom;verticalAlign=top;image=data:image/png,iVBORw0KGgoAAAANSUhEUgAAACAAAAAgCAAAAABWESUoAAACtUlEQVR4nCXTWXLbVhAF0J4eAIoiXZRoKh7iv6wn+69KVSqTI4WUSAEcALzuvvnwHs7hX1fV9/tLpmnTdfPk4RmZKUJIluRfjMgjCE1ZrFfDMHp4TeJMgETTeoioCJG1q4+7g2j4xCFcazILi2kyQCz8sP34tNs+Dbfb+Tx6iKQwEsbKrNre3X379tP2cZqu/XA89v2wXOo8D8NkJGaiy93u69ftek3waTye3t5eHx9wOGB2/mLFuu7hy+dPnz6URoSJhuH0+nq+HA/7aawWQrLc7D7/vHu6i6Ag5matLJfDS3/2mhZs0PZ+s1tpRhAhnEi61aKoaTKbWdO2baHqLmwRIANKh83OuQpXywRp0xZTlYwEiEWU5Ek7vWF2a4UqWdO2xllnFY7aqIDarvh5nN1ck9v1h4VQolZSTmEiotvxtb+FFCNGhKe0xRjCABtnvZz//f3Pw0iAeXgdhmsWJRIhEBFy7t9e/nkeKhIWLEAEBJWQBGYmkDYmVEciNlbRmK7XaykCAkAEwkJ277OfmdmKNo0hfC7F3DMgnIDPzXacr2ZslFGhCveEWBCYKX14Ow5TasxkSsjrW7feSKtErAlkTKfn07Gfdb6yhWiT19N/bbYGMDHS5+Hw9ziGLiq5sbWdzMOe282SBSDisX/567fwQGrrtlws78bbedGdr/elYQKA+dqf3MnUVmE+C83Ol/LeL1dGlO7N5rK5v7qnqpI5bkdV3PS0b+1emBht8/C4fasOZ4XVICKOOh5knmDGwOn0vJ8jEUkMA1gow+txfP1j1S3aYt+/7/uh1vRAkDWiSiSic30Pb0oxO51u+SMWBayYCJLTPbxWFUS4JxGLmEWmpbOwoIZXjxCBewKgIta2XqutZZ6UhcLdM4mQCRBTuhSKWu2e81aaH+SJMhEQATIDzNX5fynWAhXNC54YAAAAAElFTkSuQmCC;fontFamily=Georgia;" vertex="1" parent="1">
          <mxGeometry x="255.75" y="931.5" width="55" height="55" as="geometry" />
        </mxCell>
        <mxCell id="vv8YXxYiMxJcPnbVptzl-29" value="" style="endArrow=classic;html=1;rounded=0;fontFamily=Georgia;fontSize=12;fontColor=default;" edge="1" parent="1">
          <mxGeometry width="50" height="50" relative="1" as="geometry">
            <mxPoint x="301" y="1019" as="sourcePoint" />
            <mxPoint x="301" y="996.5" as="targetPoint" />
          </mxGeometry>
        </mxCell>
        <mxCell id="vv8YXxYiMxJcPnbVptzl-30" value="" style="rounded=1;whiteSpace=wrap;html=1;fillColor=#fad7ac;strokeColor=#b46504;fontFamily=Georgia;" vertex="1" parent="1">
          <mxGeometry x="199.5" y="846.5" width="204" height="20" as="geometry" />
        </mxCell>
        <mxCell id="vv8YXxYiMxJcPnbVptzl-31" value="&lt;h5&gt;&lt;font size=&quot;1&quot;&gt;Division&lt;/font&gt;&lt;/h5&gt;" style="text;html=1;strokeColor=none;fillColor=none;align=center;verticalAlign=middle;whiteSpace=wrap;rounded=0;fontFamily=Georgia;" vertex="1" parent="1">
          <mxGeometry x="239.75" y="846.5" width="123.5" height="20" as="geometry" />
        </mxCell>
        <mxCell id="vv8YXxYiMxJcPnbVptzl-32" value="" style="rounded=1;whiteSpace=wrap;html=1;fontFamily=Georgia;fontSize=12;fontColor=default;strokeColor=default;fillColor=default;" vertex="1" parent="1">
          <mxGeometry x="156.5" y="716.5" width="290" height="105" as="geometry" />
        </mxCell>
        <mxCell id="vv8YXxYiMxJcPnbVptzl-33" value="" style="endArrow=classic;html=1;rounded=0;fontFamily=Georgia;fontSize=12;fontColor=default;" edge="1" parent="1" target="vv8YXxYiMxJcPnbVptzl-31">
          <mxGeometry width="50" height="50" relative="1" as="geometry">
            <mxPoint x="301" y="886.5" as="sourcePoint" />
            <mxPoint x="298.09749999999997" y="856.4999999999998" as="targetPoint" />
          </mxGeometry>
        </mxCell>
        <mxCell id="vv8YXxYiMxJcPnbVptzl-34" value="" style="whiteSpace=wrap;html=1;aspect=fixed;fontFamily=Georgia;fontSize=12;strokeColor=#b85450;fillColor=#f8cecc;" vertex="1" parent="1">
          <mxGeometry x="341.75" y="731.5" width="27.5" height="27.5" as="geometry" />
        </mxCell>
        <mxCell id="vv8YXxYiMxJcPnbVptzl-35" value="" style="whiteSpace=wrap;html=1;aspect=fixed;fontFamily=Georgia;fontSize=12;strokeColor=#b85450;fillColor=#f8cecc;" vertex="1" parent="1">
          <mxGeometry x="206.5" y="731.5" width="27.5" height="27.5" as="geometry" />
        </mxCell>
        <mxCell id="vv8YXxYiMxJcPnbVptzl-36" value="" style="whiteSpace=wrap;html=1;aspect=fixed;fontFamily=Georgia;fontSize=12;strokeColor=#b85450;fillColor=#f8cecc;" vertex="1" parent="1">
          <mxGeometry x="274" y="734" width="27.5" height="27.5" as="geometry" />
        </mxCell>
        <mxCell id="vv8YXxYiMxJcPnbVptzl-37" value="" style="shape=image;verticalLabelPosition=bottom;labelBackgroundColor=default;verticalAlign=top;imageAspect=0;image=data:image/png,iVBORw0KGgoAAAANSUhEUgAAAA4AAAAOCAAAAAA6I3INAAAABGdBTUEAALGPC/xhBQAAACBjSFJNAAB6JgAAgIQAAPoAAACA6AAAdTAAAOpgAAA6mAAAF3CculE8AAAAAmJLR0QA/4ePzL8AAAAJcEhZcwAADsQAAA7EAZUrDhsAAAAHdElNRQfmBAwKACZsBUtsAAAAmklEQVQI1wXBi07CQBAF0Nk7dzsoWgIhq1b8/w8kaWJ3HpzTfkFCz2M8Hvd1pUD1dLpt28/3pYMBwfk6tr/x9R7BaCy1j+v41IwguZhZl+mORmSW6GKdqpCgQaZwMWPLedA1m62XN0jWnJRWEZ6wzlagh8/nc8+uIgCjoSqiUFMq0RQa//u+H9VE2HVZWOFH73SHZMxSLfcs8AWKnEmcxUH1AgAAACV0RVh0ZGF0ZTpjcmVhdGUAMjAyMi0wNC0xMlQxMDowMDozOCswMDowMOvN5EIAAAAldEVYdGRhdGU6bW9kaWZ5ADIwMjItMDQtMTJUMTA6MDA6MzgrMDA6MDCakFz+AAAAAElFTkSuQmCC;fontFamily=Georgia;" vertex="1" parent="1">
          <mxGeometry x="206.5" y="736.5" width="27.5" height="22.5" as="geometry" />
        </mxCell>
        <mxCell id="vv8YXxYiMxJcPnbVptzl-38" value="" style="shape=image;verticalLabelPosition=bottom;labelBackgroundColor=default;verticalAlign=top;aspect=fixed;imageAspect=0;image=data:image/png,iVBORw0KGgoAAAANSUhEUgAAAA4AAAAOCAAAAAA6I3INAAAABGdBTUEAALGPC/xhBQAAACBjSFJNAAB6JgAAgIQAAPoAAACA6AAAdTAAAOpgAAA6mAAAF3CculE8AAAAAmJLR0QA/4ePzL8AAAAJcEhZcwAADsQAAA7EAZUrDhsAAAAHdElNRQfmBAwKAC3715LkAAAAo0lEQVQI1wXBi0rDQBAF0DuzN3ELtWiU+v+f41cUClILJukT02Rnb8+xb6g8pvE0DP1HJ7p7XmPTdf3b7TDSETBrN8n8/ndkAIoCeH5dNYmMECg1We/bwqgSzD3Bv1LmlNxiaZMLL7nhgmTVDQD+x57ZJKPV5X477PZ0CIDqfBmOP7+skJlBSC0dhCRA0Mq355mphtyqVOb2cyIDMkMt12G8Pp7c21f8JnAJfQAAACV0RVh0ZGF0ZTpjcmVhdGUAMjAyMi0wNC0xMlQxMDowMDo0NSswMDowMIDfjJsAAAAldEVYdGRhdGU6bW9kaWZ5ADIwMjItMDQtMTJUMTA6MDA6NDUrMDA6MDDxgjQnAAAAAElFTkSuQmCC;fontFamily=Georgia;" vertex="1" parent="1">
          <mxGeometry x="274" y="739" width="22.5" height="22.5" as="geometry" />
        </mxCell>
        <mxCell id="vv8YXxYiMxJcPnbVptzl-39" value="" style="shape=image;verticalLabelPosition=bottom;labelBackgroundColor=default;verticalAlign=top;imageAspect=0;image=data:image/png,iVBORw0KGgoAAAANSUhEUgAAAA4AAAAOCAAAAAA6I3INAAAABGdBTUEAALGPC/xhBQAAACBjSFJNAAB6JgAAgIQAAPoAAACA6AAAdTAAAOpgAAA6mAAAF3CculE8AAAAAmJLR0QA/4ePzL8AAAAJcEhZcwAADsQAAA7EAZUrDhsAAAAHdElNRQfmBAwKADSfvDokAAAAo0lEQVQI1wXBYU7CYBAE0N1lCpgQE5SreHZP4Q34pyEIFr+UWGu7O+N7/lYld3K83fr+AvMVJdZfO7fvAYubiznfvz6mqRCSmU/D5/uxshBukjSPQ8s0wIyZ6/3PfjdmhjzCtXl8ej7sOsMFcKm183UuCq/bh02H0+k63JeF/rLuOqC1X5IS+lWoKpNmHoEpQpmUZF0ANBMpmRszYKRKERJZ+gcEEHpuE1lQEQAAACV0RVh0ZGF0ZTpjcmVhdGUAMjAyMi0wNC0xMlQxMDowMDo1MiswMDowMInSsosAAAAldEVYdGRhdGU6bW9kaWZ5ADIwMjItMDQtMTJUMTA6MDA6NTIrMDA6MDD4jwo3AAAAAElFTkSuQmCC;fontFamily=Georgia;" vertex="1" parent="1">
          <mxGeometry x="341.75" y="731.5" width="22.5" height="27.5" as="geometry" />
        </mxCell>
        <mxCell id="vv8YXxYiMxJcPnbVptzl-40" value="" style="shape=image;verticalLabelPosition=bottom;labelBackgroundColor=default;verticalAlign=top;aspect=fixed;imageAspect=0;image=data:image/png,iVBORw0KGgoAAAANSUhEUgAAAA4AAAAOCAAAAAA6I3INAAAABGdBTUEAALGPC/xhBQAAACBjSFJNAAB6JgAAgIQAAPoAAACA6AAAdTAAAOpgAAA6mAAAF3CculE8AAAAAmJLR0QA/4ePzL8AAAAJcEhZcwAADsQAAA7EAZUrDhsAAAAHdElNRQfmBAwKADp4BBcjAAAAnUlEQVQI1wXBQW7CQAwFUH9/O2SSMLAsQoj7X6vLrlpVKgqxPX0PN7jd74/nc918FK8AHGyLTRThCp8carDZM9l9bhwi2XqD8mPrF9nTee4zjBeI7CGKdTt547lev3tCpU1+WrhUFaAEIga5Aqqi1Pz7/vq0SUkRVb6PnwxzUx2Fisg4DquAQseRcUSmdX3vhEpGRJVtqJdPrEwRkX/wEUDuMxoVWAAAACV0RVh0ZGF0ZTpjcmVhdGUAMjAyMi0wNC0xMlQxMDowMDo1OCswMDowMC2i7cUAAAAldEVYdGRhdGU6bW9kaWZ5ADIwMjItMDQtMTJUMTA6MDA6NTgrMDA6MDBc/1V5AAAAAElFTkSuQmCC;fontFamily=Georgia;" vertex="1" parent="1">
          <mxGeometry x="410" y="731.5" width="27.5" height="27.5" as="geometry" />
        </mxCell>
        <mxCell id="vv8YXxYiMxJcPnbVptzl-41" value="" style="whiteSpace=wrap;html=1;aspect=fixed;fontFamily=Georgia;fontSize=12;strokeColor=#b85450;fillColor=#f8cecc;" vertex="1" parent="1">
          <mxGeometry x="196.5" y="741.5" width="27.5" height="27.5" as="geometry" />
        </mxCell>
        <mxCell id="vv8YXxYiMxJcPnbVptzl-42" value="" style="shape=image;verticalLabelPosition=bottom;labelBackgroundColor=default;verticalAlign=top;aspect=fixed;imageAspect=0;image=data:image/png,iVBORw0KGgoAAAANSUhEUgAAAA4AAAAOCAAAAAA6I3INAAAABGdBTUEAALGPC/xhBQAAACBjSFJNAAB6JgAAgIQAAPoAAACA6AAAdTAAAOpgAAA6mAAAF3CculE8AAAAAmJLR0QA/4ePzL8AAAAJcEhZcwAADsQAAA7EAZUrDhsAAAAHdElNRQfmBAwJOyMim+6CAAAAmklEQVQI1wXBAW4CMQwEwPXGIS3QQyCUlhN8oP//WaVTIbGXGfs99H6/X5cFms9/Xy7revs5VZIfR/i1r4/+vY9AwMzb8dy/SkYAislWMeYMc8uEc9eql0JESjD3XWtuOV6FFsOX0yeRGgPFkj6TrbqJJpn735a1ACQEwCNEDSghM/Pntm21UpAEUDFfqK0WQkYvRXOm6AGZvQEzTEiNNH+DUwAAACV0RVh0ZGF0ZTpjcmVhdGUAMjAyMi0wNC0xMlQwOTo1OTozNSswMDowMB3C6ZQAAAAldEVYdGRhdGU6bW9kaWZ5ADIwMjItMDQtMTJUMDk6NTk6MzUrMDA6MDBsn1EoAAAAAElFTkSuQmCC;fontFamily=Georgia;" vertex="1" parent="1">
          <mxGeometry x="201.5" y="746.5" width="22.5" height="22.5" as="geometry" />
        </mxCell>
        <mxCell id="vv8YXxYiMxJcPnbVptzl-43" value="" style="whiteSpace=wrap;html=1;aspect=fixed;fontFamily=Georgia;fontSize=12;strokeColor=#b85450;fillColor=#f8cecc;" vertex="1" parent="1">
          <mxGeometry x="186.5" y="751.5" width="27.5" height="27.5" as="geometry" />
        </mxCell>
        <mxCell id="vv8YXxYiMxJcPnbVptzl-44" value="" style="shape=image;verticalLabelPosition=bottom;labelBackgroundColor=default;verticalAlign=top;imageAspect=0;image=data:image/png,iVBORw0KGgoAAAANSUhEUgAAAA4AAAAOCAAAAAA6I3INAAAABGdBTUEAALGPC/xhBQAAACBjSFJNAAB6JgAAgIQAAPoAAACA6AAAdTAAAOpgAAA6mAAAF3CculE8AAAAAmJLR0QA/4ePzL8AAAAJcEhZcwAADsQAAA7EAZUrDhsAAAAHdElNRQfmBAwJMyqTntwuAAAAp0lEQVQI1wXBwVbCQAwF0CTz2tQKReowxR5k7///lis5gmUmiffy1687Uj8Mz61ZS1OI9Dq+zexBDBMi6P5UviVZA7HwnE9Lycvt8QB0HK/Xc37ftvvPDfpayuWSp4mibX+Y5nX9OB86ERl2hFzWz7KMZmTEDN0dyz65GVFYE+2otmYMdidIrx1SEjKPIAZ6VbDXZxK2iunwIuRRKyV2QXPRDhzCEYx/II1BDWp1RpoAAAAldEVYdGRhdGU6Y3JlYXRlADIwMjItMDQtMTJUMDk6NTE6NDIrMDA6MDDBd573AAAAJXRFWHRkYXRlOm1vZGlmeQAyMDIyLTA0LTEyVDA5OjUxOjQyKzAwOjAwsComSwAAAABJRU5ErkJggg==;fontFamily=Georgia;" vertex="1" parent="1">
          <mxGeometry x="191.5" y="751.5" width="22.5" height="27.5" as="geometry" />
        </mxCell>
        <mxCell id="vv8YXxYiMxJcPnbVptzl-45" value="" style="shape=image;verticalLabelPosition=bottom;labelBackgroundColor=default;verticalAlign=top;aspect=fixed;imageAspect=0;image=data:image/png,iVBORw0KGgoAAAANSUhEUgAAAA0AAAANCAAAAABXgLugAAAABGdBTUEAALGPC/xhBQAAACBjSFJNAAB6JgAAgIQAAPoAAACA6AAAdTAAAOpgAAA6mAAAF3CculE8AAAAAmJLR0QA/4ePzL8AAAAJcEhZcwAADsQAAA7EAZUrDhsAAAAHdElNRQfmBAwJKw9agZAwAAAAkUlEQVQI1wXBTQ6CMBAG0Pn56AAKRAMFibLzPN7/DOxMXLWd+h5/hpTP8+cODS2/QZRLoRqabsS3iqgIEWxYoM61Egvf52UFK7Oq9f1xbDNIANFLjM/nPIJEtW3v+/7YpgZFSC63uL/i2hcURlW73uKgXgAEM2so5Sws7pU0WANVIZhQIgQzsCdkdbZx6oS8pj+tzyhNxUsYyQAAACV0RVh0ZGF0ZTpjcmVhdGUAMjAyMi0wNC0xMlQwOTo0MzoxNSswMDowMIlLoeAAAAAldEVYdGRhdGU6bW9kaWZ5ADIwMjItMDQtMTJUMDk6NDM6MTUrMDA6MDD4FhlcAAAAAElFTkSuQmCC;fontFamily=Georgia;" vertex="1" parent="1">
          <mxGeometry x="176.5" y="761.5" width="27.5" height="27.5" as="geometry" />
        </mxCell>
        <mxCell id="vv8YXxYiMxJcPnbVptzl-46" value="" style="shape=image;verticalLabelPosition=bottom;labelBackgroundColor=default;verticalAlign=top;aspect=fixed;imageAspect=0;image=data:image/png,iVBORw0KGgoAAAANSUhEUgAAABAAAAAQCAAAAAA6mKC9AAAABGdBTUEAALGPC/xhBQAAACBjSFJNAAB6JgAAgIQAAPoAAACA6AAAdTAAAOpgAAA6mAAAF3CculE8AAAAAmJLR0QA/4ePzL8AAAAJcEhZcwAADsQAAA7EAZUrDhsAAAAHdElNRQfmBAwKDAwbC822AAAAyklEQVQY0wXBUVLCUAwF0JubtK+ALQOWggz653rc/xrwy47OwHtJPEe+xtru998I034Yng/5NKC5I/tuM43raj9JKglYGU/LN01DMiGU43w6L/PZREVUy3b78XGZXx8PA82ou2W53eZpQhqoOgzH6/Xtsu9ImhPcHZbr+3LeusPNxVLLy2EZNdwBmvWllA61NReTYERC+9KZKuGRVogK60sxifpUWtOQMu03RGStUIOkewuWziQpac1bXde/6BQgkebCTPdkVmQg/wGNulVaS/5WbwAAACV0RVh0ZGF0ZTpjcmVhdGUAMjAyMi0wNC0xMlQxMDoxMjoxMiswMDowMMjjs4wAAAAldEVYdGRhdGU6bW9kaWZ5ADIwMjItMDQtMTJUMTA6MTI6MTIrMDA6MDC5vgswAAAAAElFTkSuQmCC;fontFamily=Georgia;" vertex="1" parent="1">
          <mxGeometry x="166.5" y="771.5" width="27.5" height="27.5" as="geometry" />
        </mxCell>
        <mxCell id="vv8YXxYiMxJcPnbVptzl-47" value="" style="whiteSpace=wrap;html=1;aspect=fixed;fontFamily=Georgia;fontSize=12;strokeColor=#b85450;fillColor=#f8cecc;" vertex="1" parent="1">
          <mxGeometry x="264" y="744" width="27.5" height="27.5" as="geometry" />
        </mxCell>
        <mxCell id="vv8YXxYiMxJcPnbVptzl-48" value="" style="shape=image;verticalLabelPosition=bottom;labelBackgroundColor=default;verticalAlign=top;imageAspect=0;image=data:image/png,iVBORw0KGgoAAAANSUhEUgAAAA4AAAAOCAAAAAA6I3INAAAABGdBTUEAALGPC/xhBQAAACBjSFJNAAB6JgAAgIQAAPoAAACA6AAAdTAAAOpgAAA6mAAAF3CculE8AAAAAmJLR0QA/4ePzL8AAAAJcEhZcwAADsQAAA7EAZUrDhsAAAAHdElNRQfmBAwJOypbR1YmAAAArklEQVQI1wXBW07DMBAF0HnchPSDCgIqH+x/CawHCQmVCseBxCGu7c5wDr/NPzFOT6OHEOOG1+M4Tg/pPIfva66w/qgsW7gsqVVDIpLh/tAp1JgB927wx1PjKlzBIkryooPuXhpKr+J0N3Qt5dIgTES0z9Oy36QD2OqWzu8fIZM7yK0s8fL5tVY3B5OT9hCqmYjRnPwgp9/SEjNDzL2V/jmXP4AhZG2N83o1vRX6B09maKlPoU7EAAAAJXRFWHRkYXRlOmNyZWF0ZQAyMDIyLTA0LTEyVDA5OjU5OjQyKzAwOjAw0qDeAwAAACV0RVh0ZGF0ZTptb2RpZnkAMjAyMi0wNC0xMlQwOTo1OTo0MiswMDowMKP9Zr8AAAAASUVORK5CYII=;fontFamily=Georgia;" vertex="1" parent="1">
          <mxGeometry x="264" y="750" width="27.5" height="22.5" as="geometry" />
        </mxCell>
        <mxCell id="vv8YXxYiMxJcPnbVptzl-49" value="" style="shape=image;verticalLabelPosition=bottom;labelBackgroundColor=default;verticalAlign=top;aspect=fixed;imageAspect=0;image=data:image/png,iVBORw0KGgoAAAANSUhEUgAAAA4AAAAOCAAAAAA6I3INAAAABGdBTUEAALGPC/xhBQAAACBjSFJNAAB6JgAAgIQAAPoAAACA6AAAdTAAAOpgAAA6mAAAF3CculE8AAAAAmJLR0QA/4ePzL8AAAAJcEhZcwAADsQAAA7EAZUrDhsAAAAHdElNRQfmBAwJMzRpkeFNAAAAr0lEQVQI1wXBQU7DMBAF0Pkz4xIUUUGQ2gULuAFL7n8SJDYVwqmrxFUS25nhPbzbbmbM5AY2Dc0gauZOALTfsDNqNYDB+pHz2nZmY7i5fqU0TXPfSynzvOlnul2v4+vgMXpp+nYchvE5X1L829aqdjgK+B5/p9yqaSbi7ukxiIoBqu6h85dTQ2VUBbMQn6WTxUvTchB2euhCy2tpyiAiWtI4LTsHVVi958v3T1zJ/R+M0GYRKNrWQAAAACV0RVh0ZGF0ZTpjcmVhdGUAMjAyMi0wNC0xMlQwOTo1MTo1MiswMDowMA3dnmkAAAAldEVYdGRhdGU6bW9kaWZ5ADIwMjItMDQtMTJUMDk6NTE6NTIrMDA6MDB8gCbVAAAAAElFTkSuQmCC;fontFamily=Georgia;" vertex="1" parent="1">
          <mxGeometry x="254" y="754" width="27.5" height="27.5" as="geometry" />
        </mxCell>
        <mxCell id="vv8YXxYiMxJcPnbVptzl-50" value="" style="whiteSpace=wrap;html=1;aspect=fixed;fontFamily=Georgia;fontSize=12;strokeColor=#b85450;fillColor=#f8cecc;" vertex="1" parent="1">
          <mxGeometry x="244" y="764" width="27.5" height="27.5" as="geometry" />
        </mxCell>
        <mxCell id="vv8YXxYiMxJcPnbVptzl-51" value="" style="shape=image;verticalLabelPosition=bottom;labelBackgroundColor=default;verticalAlign=top;imageAspect=0;image=data:image/png,iVBORw0KGgoAAAANSUhEUgAAAA0AAAANCAAAAABXgLugAAAABGdBTUEAALGPC/xhBQAAACBjSFJNAAB6JgAAgIQAAPoAAACA6AAAdTAAAOpgAAA6mAAAF3CculE8AAAAAmJLR0QA/4ePzL8AAAAJcEhZcwAADsQAAA7EAZUrDhsAAAAHdElNRQfmBAwJKy2P4dHUAAAAl0lEQVQI1wXB7W6CQBAF0Dt3B7vGjyhN5BX82/T9n6cxEdcALRB2ZnqOfK3Vqpu7k0h3DwgcVLhrx2R1FaNsm+u9G+d5mpZqpOv3+jeMpQzDeDgk7aKuS3m/Xv1nG6rMR5zbtr9MP0VhENmdk/D3+VBDWAWYT/smqVhAI5oc11tVj4CQCexSVqPYtksMfOSGJhQKAMyl/wcY8U5lCUK3uAAAACV0RVh0ZGF0ZTpjcmVhdGUAMjAyMi0wNC0xMlQwOTo0Mzo0NSswMDowMMGrr4QAAAAldEVYdGRhdGU6bW9kaWZ5ADIwMjItMDQtMTJUMDk6NDM6NDUrMDA6MDCw9hc4AAAAAElFTkSuQmCC;fontFamily=Georgia;" vertex="1" parent="1">
          <mxGeometry x="244" y="764" width="22.5" height="27.5" as="geometry" />
        </mxCell>
        <mxCell id="vv8YXxYiMxJcPnbVptzl-52" value="" style="shape=image;verticalLabelPosition=bottom;labelBackgroundColor=default;verticalAlign=top;aspect=fixed;imageAspect=0;image=data:image/png,iVBORw0KGgoAAAANSUhEUgAAABAAAAAQCAAAAAA6mKC9AAAABGdBTUEAALGPC/xhBQAAACBjSFJNAAB6JgAAgIQAAPoAAACA6AAAdTAAAOpgAAA6mAAAF3CculE8AAAAAmJLR0QA/4ePzL8AAAAJcEhZcwAADsQAAA7EAZUrDhsAAAAHdElNRQfmBAwKDBgB0RnLAAAA00lEQVQY0wXBbUrDQBAG4HlnJzWSWmwEPYDgHy/h/S8hCFKL+ZDNliS7szM+D96qWjUzZnIDmzSAGoKYuRMA6aruqIxSDGCwvK9rSptWZmO4uXzEZZ5jXLou5Lwsu7zu2/w3TeNT78PgWeV4pFPfj4/pMg+/+1ZEgcMpgG/DNSYtJrUqEbcP902QYIAYiXvT+vlZURhFnMAciF9CG1bPKlzLIbDTXdto2rIyg0FEtM5jXJUbMQis3NLl82vYyF2cyC3H6fr9sxQ3FwfIKRyEqWxE+AfMIYdUYOffwAAAACV0RVh0ZGF0ZTpjcmVhdGUAMjAyMi0wNC0xMlQxMDoxMjoyNCswMDowMCW8gVUAAAAldEVYdGRhdGU6bW9kaWZ5ADIwMjItMDQtMTJUMTA6MTI6MjQrMDA6MDBU4TnpAAAAAElFTkSuQmCC;fontFamily=Georgia;" vertex="1" parent="1">
          <mxGeometry x="234" y="774" width="27.5" height="27.5" as="geometry" />
        </mxCell>
        <mxCell id="vv8YXxYiMxJcPnbVptzl-53" value="" style="shape=image;verticalLabelPosition=bottom;labelBackgroundColor=default;verticalAlign=top;aspect=fixed;imageAspect=0;image=data:image/png,iVBORw0KGgoAAAANSUhEUgAAAA4AAAAOCAAAAAA6I3INAAAABGdBTUEAALGPC/xhBQAAACBjSFJNAAB6JgAAgIQAAPoAAACA6AAAdTAAAOpgAAA6mAAAF3CculE8AAAAAmJLR0QA/4ePzL8AAAAJcEhZcwAADsQAAA7EAZUrDhsAAAAHdElNRQfmBAwJOzShSGtFAAAAqklEQVQI1wXBQU7DQAwFUHvsEFUqSAUOwP3P0AOwZc8OFAqlZZSKNMz4f/OePpPL+Xw6fX1MhHgSf/VQf+ZmbVFntMv3+7rCNl3CdZ0/314RSNoY7tmWuUaIm9/C42b3u9suETQzKTne3T88bgfJoKT3Wg/HBiYomv4yTcf50jsDCfF9rVeSmVIEqU8RFNFS3EHY0AGglGHcmEphpqgygoLePUvJJJGqPfQfKCiA35/Ltz4AAAAldEVYdGRhdGU6Y3JlYXRlADIwMjItMDQtMTJUMDk6NTk6NTIrMDA6MDAeCt6dAAAAJXRFWHRkYXRlOm1vZGlmeQAyMDIyLTA0LTEyVDA5OjU5OjUyKzAwOjAwb1dmIQAAAABJRU5ErkJggg==;fontFamily=Georgia;" vertex="1" parent="1">
          <mxGeometry x="331.75" y="741.5" width="27.5" height="27.5" as="geometry" />
        </mxCell>
        <mxCell id="vv8YXxYiMxJcPnbVptzl-54" value="" style="whiteSpace=wrap;html=1;aspect=fixed;fontFamily=Georgia;fontSize=12;strokeColor=#b85450;fillColor=#f8cecc;" vertex="1" parent="1">
          <mxGeometry x="321.75" y="751.5" width="27.5" height="27.5" as="geometry" />
        </mxCell>
        <mxCell id="vv8YXxYiMxJcPnbVptzl-55" value="" style="shape=image;verticalLabelPosition=bottom;labelBackgroundColor=default;verticalAlign=top;imageAspect=0;image=data:image/png,iVBORw0KGgoAAAANSUhEUgAAAA4AAAAOCAAAAAA6I3INAAAABGdBTUEAALGPC/xhBQAAACBjSFJNAAB6JgAAgIQAAPoAAACA6AAAdTAAAOpgAAA6mAAAF3CculE8AAAAAmJLR0QA/4ePzL8AAAAJcEhZcwAADsQAAA7EAZUrDhsAAAAHdElNRQfmBAwJNAFwY7OpAAAArElEQVQI1wXBy24CMQwAQDt2FyHRSlDU//+bnnuHCwW0KxCkCayC40dn8Dul/nzs9odpgnCGcCm36TTWHh6MEEADJ+gNAFkDYpm+/kQfiMjJI1SGbZOZGTmBa73d68vJBDjcXnnM9yIkM7Kr1OuxNaNlB2VsZfrdmVo4LZQ5ZC5ZFZj43ViH9XO9mlWdiCDF4mPzuV29QahDcM95vIh5mAMG/5zPl1J7d7Uw+AcBRX5xgO3RCwAAACV0RVh0ZGF0ZTpjcmVhdGUAMjAyMi0wNC0xMlQwOTo1MjowMSswMDowMJ/iMZMAAAAldEVYdGRhdGU6bW9kaWZ5ADIwMjItMDQtMTJUMDk6NTI6MDErMDA6MDDuv4kvAAAAAElFTkSuQmCC;fontFamily=Georgia;" vertex="1" parent="1">
          <mxGeometry x="321.75" y="751.5" width="27.5" height="22.5" as="geometry" />
        </mxCell>
        <mxCell id="vv8YXxYiMxJcPnbVptzl-56" value="" style="whiteSpace=wrap;html=1;aspect=fixed;fontFamily=Georgia;fontSize=12;strokeColor=#b85450;fillColor=#f8cecc;" vertex="1" parent="1">
          <mxGeometry x="311.75" y="761.5" width="27.5" height="27.5" as="geometry" />
        </mxCell>
        <mxCell id="vv8YXxYiMxJcPnbVptzl-57" value="" style="shape=image;verticalLabelPosition=bottom;labelBackgroundColor=default;verticalAlign=top;aspect=fixed;imageAspect=0;image=data:image/png,iVBORw0KGgoAAAANSUhEUgAAAA0AAAANCAAAAABXgLugAAAABGdBTUEAALGPC/xhBQAAACBjSFJNAAB6JgAAgIQAAPoAAACA6AAAdTAAAOpgAAA6mAAAF3CculE8AAAAAmJLR0QA/4ePzL8AAAAJcEhZcwAADsQAAA7EAZUrDhsAAAAHdElNRQfmBAwJLASCEt9/AAAAl0lEQVQI1wXBSQ6CQBAF0F9NCTFx4xDvfw8v4BVI3DlEg2ILEaGpru97ciQAkd+rretrcCcERFFqgJIECC7D/pM0ZAZx0lK5G7UAReDWt+9+Uimc9DzFe3x36hC6pf55GcesICBj9zifsmVVkGQaumgGLeBm5fq7Xg1mKgJhVW62u3Y2faqQMd6blJ16WFYLvd2arp9n/wMcNmf61i1bNQAAACV0RVh0ZGF0ZTpjcmVhdGUAMjAyMi0wNC0xMlQwOTo0NDowNCswMDowMAFKsbMAAAAldEVYdGRhdGU6bW9kaWZ5ADIwMjItMDQtMTJUMDk6NDQ6MDQrMDA6MDBwFwkPAAAAAElFTkSuQmCC;fontFamily=Georgia;" vertex="1" parent="1">
          <mxGeometry x="311.75" y="761.5" width="22.5" height="22.5" as="geometry" />
        </mxCell>
        <mxCell id="vv8YXxYiMxJcPnbVptzl-58" value="" style="shape=image;verticalLabelPosition=bottom;labelBackgroundColor=default;verticalAlign=top;aspect=fixed;imageAspect=0;image=data:image/png,iVBORw0KGgoAAAANSUhEUgAAABAAAAAQCAAAAAA6mKC9AAAABGdBTUEAALGPC/xhBQAAACBjSFJNAAB6JgAAgIQAAPoAAACA6AAAdTAAAOpgAAA6mAAAF3CculE8AAAAAmJLR0QA/4ePzL8AAAAJcEhZcwAADsQAAA7EAZUrDhsAAAAHdElNRQfmBAwKDCFe1JHDAAAAy0lEQVQY0yXKQU4CQRAF0KrqgokJmqDc/ybujJeQhUYlGIx0ZuIwdP+q78K3fvokQkG77l9ePw+q6jRNEm29W9rsrl5UJTH9nKdrlmjiRmZc67Gex1barK5MtOn7Y1mi3HSBU3QZv973gWCWAe4k2zxWQLz4bbgB6+3vdjMDWUoRM+Vwd/+w26yESKGPZK3HU4tkpCj9eeWHw2mcek8EQ/zRvdZLZpJiEvS3CCBF1Mw9Mv0CJElZmQ8Derf/rJpASvTuCJqRmUHVDv0DFaqkIsf5/gAAAAAldEVYdGRhdGU6Y3JlYXRlADIwMjItMDQtMTJUMTA6MTI6MzMrMDA6MDAssb9FAAAAJXRFWHRkYXRlOm1vZGlmeQAyMDIyLTA0LTEyVDEwOjEyOjMzKzAwOjAwXewH+QAAAABJRU5ErkJggg==;fontFamily=Georgia;" vertex="1" parent="1">
          <mxGeometry x="301.75" y="771.5" width="27.5" height="27.5" as="geometry" />
        </mxCell>
        <mxCell id="vv8YXxYiMxJcPnbVptzl-59" value="" style="whiteSpace=wrap;html=1;aspect=fixed;fontFamily=Georgia;fontSize=12;strokeColor=#b85450;fillColor=#f8cecc;" vertex="1" parent="1">
          <mxGeometry x="400" y="741.5" width="27.5" height="27.5" as="geometry" />
        </mxCell>
        <mxCell id="vv8YXxYiMxJcPnbVptzl-60" value="" style="shape=image;verticalLabelPosition=bottom;labelBackgroundColor=default;verticalAlign=top;imageAspect=0;image=data:image/png,iVBORw0KGgoAAAANSUhEUgAAAA4AAAAOCAAAAAA6I3INAAAABGdBTUEAALGPC/xhBQAAACBjSFJNAAB6JgAAgIQAAPoAAACA6AAAdTAAAOpgAAA6mAAAF3CculE8AAAAAmJLR0QA/4ePzL8AAAAJcEhZcwAADsQAAA7EAZUrDhsAAAAHdElNRQfmBAwKAAC+CM6RAAAAnUlEQVQI1wXBW2oCQRAF0FuP7pnWUchHPqIE15XluwAJARGZrluVc+Tn+3Y7bq2SLBG72jh4NwACwC7q4msjAam0L4DjPERRAHw+x/p8ba0Lqso+oXLcljZUkWFnUYzeloMqkvahJhJR9t73SU/G/H0/7qd1LM3dVW2ff4zemrurZARjTtMiXWoyZpCqFeGiYERkApXp3ZIEgMxi/QNAgVKFGAtjkgAAACV0RVh0ZGF0ZTpjcmVhdGUAMjAyMi0wNC0xMlQxMDowMDowMCswMDowMFatrcYAAAAldEVYdGRhdGU6bW9kaWZ5ADIwMjItMDQtMTJUMTA6MDA6MDArMDA6MDAn8BV6AAAAAElFTkSuQmCC;fontFamily=Georgia;" vertex="1" parent="1">
          <mxGeometry x="405" y="741.5" width="22.5" height="27.5" as="geometry" />
        </mxCell>
        <mxCell id="vv8YXxYiMxJcPnbVptzl-61" value="" style="whiteSpace=wrap;html=1;aspect=fixed;fontFamily=Georgia;fontSize=12;strokeColor=#b85450;fillColor=#f8cecc;" vertex="1" parent="1">
          <mxGeometry x="390" y="751.5" width="27.5" height="27.5" as="geometry" />
        </mxCell>
        <mxCell id="vv8YXxYiMxJcPnbVptzl-62" value="" style="shape=image;verticalLabelPosition=bottom;labelBackgroundColor=default;verticalAlign=top;aspect=fixed;imageAspect=0;image=data:image/png,iVBORw0KGgoAAAANSUhEUgAAAA4AAAAOCAAAAAA6I3INAAAABGdBTUEAALGPC/xhBQAAACBjSFJNAAB6JgAAgIQAAPoAAACA6AAAdTAAAOpgAAA6mAAAF3CculE8AAAAAmJLR0QA/4ePzL8AAAAJcEhZcwAADsQAAA7EAZUrDhsAAAAHdElNRQfmBAwJNArnsWohAAAAnElEQVQI1y3NO24CMRQF0Pt+4zEhSBQUTIrskD2zgChFkEXGfr40nA0cuX1v21KkDxEQ/tdmGKAKAvBMKjs4QRHx/9ZahBIkAWWOHVHCFBR1M44xqZ6giH1ZPfhiAASAberia2QCwmlXIOupyjvqj7o+2jEWAUm7QOXjWKKqYg47iaIuUQ6qmGlnNZExaM997+kzR/99/tw/11rCX4PGRajZJjxbAAAAJXRFWHRkYXRlOmNyZWF0ZQAyMDIyLTA0LTEyVDA5OjUyOjEwKzAwOjAw9T86uQAAACV0RVh0ZGF0ZTptb2RpZnkAMjAyMi0wNC0xMlQwOTo1MjoxMCswMDowMIRiggUAAAAASUVORK5CYII=;fontFamily=Georgia;" vertex="1" parent="1">
          <mxGeometry x="395" y="751.5" width="22.5" height="22.5" as="geometry" />
        </mxCell>
        <mxCell id="vv8YXxYiMxJcPnbVptzl-63" value="" style="whiteSpace=wrap;html=1;aspect=fixed;fontFamily=Georgia;fontSize=12;strokeColor=#b85450;fillColor=#f8cecc;" vertex="1" parent="1">
          <mxGeometry x="380" y="761.5" width="27.5" height="27.5" as="geometry" />
        </mxCell>
        <mxCell id="vv8YXxYiMxJcPnbVptzl-64" value="" style="shape=image;verticalLabelPosition=bottom;labelBackgroundColor=default;verticalAlign=top;imageAspect=0;image=data:image/png,iVBORw0KGgoAAAANSUhEUgAAAA0AAAANCAAAAABXgLugAAAABGdBTUEAALGPC/xhBQAAACBjSFJNAAB6JgAAgIQAAPoAAACA6AAAdTAAAOpgAAA6mAAAF3CculE8AAAAAmJLR0QA/4ePzL8AAAAJcEhZcwAADsQAAA7EAZUrDhsAAAAHdElNRQfmBAwJLBCYyAsCAAAAiUlEQVQI1wXBQQ6CQAwF0P7+dmQAwZVxC/c/mSsTEww6nfoe7qBt+75vZggLaGZEav4kFVTGeRzHNyHmLMUy2tfdmkqPX5LZWk/lDYCDdbRC4QQvDjXY4MHFh8oUibpU8DEvq5zhvC4DuELkbKKY5ovz2j/vM6BSi1849t4BJdBacgJURalxvJ5/BbE29mneKVkAAAAldEVYdGRhdGU6Y3JlYXRlADIwMjItMDQtMTJUMDk6NDQ6MTYrMDA6MDBaf6AEAAAAJXRFWHRkYXRlOm1vZGlmeQAyMDIyLTA0LTEyVDA5OjQ0OjE2KzAwOjAwKyIYuAAAAABJRU5ErkJggg==;fontFamily=Georgia;" vertex="1" parent="1">
          <mxGeometry x="380" y="761.5" width="27.5" height="22.5" as="geometry" />
        </mxCell>
        <mxCell id="vv8YXxYiMxJcPnbVptzl-65" value="" style="shape=image;verticalLabelPosition=bottom;labelBackgroundColor=default;verticalAlign=top;aspect=fixed;imageAspect=0;image=data:image/png,iVBORw0KGgoAAAANSUhEUgAAABAAAAAQCAAAAAA6mKC9AAAABGdBTUEAALGPC/xhBQAAACBjSFJNAAB6JgAAgIQAAPoAAACA6AAAdTAAAOpgAAA6mAAAF3CculE8AAAAAmJLR0QA/4ePzL8AAAAJcEhZcwAADsQAAA7EAZUrDhsAAAAHdElNRQfmBAwKDCrJBkhLAAAAwUlEQVQY0wXBQU7DQAwF0O9vO8mkacqCBRJIbHr/O3EAhBCLNhnbw3vyqubvH5/3uzurxqD7vNjIOOGzK2Go7EN1RNSgJfRFRFy0rTYpANGL+ORCE1s8E9Ddl6YDyLY3IYa+bfsNR7pe90VMVW8CHAHKZZu9kXqtx9+RQrTJ55XUtapEqCIRQ5+njSFEZfSf5/fXdWk2URUg9ey/GZObGzlKKiKjd6VVCIWjZ/TIJG3neagQGRFVgG1SD5+0MgGg6h9//VsSG50RbAAAACV0RVh0ZGF0ZTpjcmVhdGUAMjAyMi0wNC0xMlQxMDoxMjo0MiswMDowMIADvegAAAAldEVYdGRhdGU6bW9kaWZ5ADIwMjItMDQtMTJUMTA6MTI6NDIrMDA6MDDxXgVUAAAAAElFTkSuQmCC;fontFamily=Georgia;" vertex="1" parent="1">
          <mxGeometry x="370" y="771.5" width="27.5" height="27.5" as="geometry" />
        </mxCell>
        <mxCell id="vv8YXxYiMxJcPnbVptzl-66" value="" style="endArrow=classic;html=1;rounded=0;fontFamily=Georgia;fontSize=12;fontColor=default;" edge="1" parent="1">
          <mxGeometry width="50" height="50" relative="1" as="geometry">
            <mxPoint x="301" y="846.5" as="sourcePoint" />
            <mxPoint x="301" y="821.5" as="targetPoint" />
          </mxGeometry>
        </mxCell>
        <mxCell id="vv8YXxYiMxJcPnbVptzl-67" value="" style="rounded=1;whiteSpace=wrap;html=1;fillColor=#fad7ac;strokeColor=#b46504;fontFamily=Georgia;" vertex="1" parent="1">
          <mxGeometry x="199.5" y="679" width="204" height="20" as="geometry" />
        </mxCell>
        <mxCell id="vv8YXxYiMxJcPnbVptzl-68" value="&lt;h5&gt;&lt;font size=&quot;1&quot;&gt;Patch Flattening&lt;/font&gt;&lt;/h5&gt;" style="text;html=1;strokeColor=none;fillColor=none;align=center;verticalAlign=middle;whiteSpace=wrap;rounded=0;fontFamily=Georgia;" vertex="1" parent="1">
          <mxGeometry x="234" y="682.75" width="133.5" height="12.5" as="geometry" />
        </mxCell>
        <mxCell id="vv8YXxYiMxJcPnbVptzl-69" value="" style="rounded=1;whiteSpace=wrap;html=1;fillColor=#fad7ac;strokeColor=#b46504;fontFamily=Georgia;" vertex="1" parent="1">
          <mxGeometry x="199.5" y="641.5" width="204" height="20" as="geometry" />
        </mxCell>
        <mxCell id="vv8YXxYiMxJcPnbVptzl-70" value="&lt;h5&gt;&lt;br&gt;&lt;/h5&gt;" style="text;html=1;strokeColor=none;fillColor=none;align=center;verticalAlign=middle;whiteSpace=wrap;rounded=0;fontFamily=Georgia;" vertex="1" parent="1">
          <mxGeometry x="239.75" y="641.5" width="123.5" height="20" as="geometry" />
        </mxCell>
        <mxCell id="vv8YXxYiMxJcPnbVptzl-71" value="" style="rounded=1;whiteSpace=wrap;html=1;fillColor=#fad7ac;strokeColor=#b46504;fontFamily=Georgia;" vertex="1" parent="1">
          <mxGeometry x="199.75" y="601.5" width="204" height="20" as="geometry" />
        </mxCell>
        <mxCell id="vv8YXxYiMxJcPnbVptzl-72" value="&lt;h5&gt;&lt;font size=&quot;1&quot;&gt;Linear Projection&amp;nbsp;&lt;/font&gt;&lt;br&gt;&lt;/h5&gt;" style="text;html=1;strokeColor=none;fillColor=none;align=center;verticalAlign=middle;whiteSpace=wrap;rounded=0;fontFamily=Georgia;" vertex="1" parent="1">
          <mxGeometry x="240" y="601.5" width="123.5" height="20" as="geometry" />
        </mxCell>
        <mxCell id="vv8YXxYiMxJcPnbVptzl-73" value="&lt;h5&gt;Layer Normalization&lt;/h5&gt;" style="text;html=1;strokeColor=none;fillColor=none;align=center;verticalAlign=middle;whiteSpace=wrap;rounded=0;fontFamily=Georgia;" vertex="1" parent="1">
          <mxGeometry x="223.87" y="641.5" width="155.25" height="20" as="geometry" />
        </mxCell>
        <mxCell id="vv8YXxYiMxJcPnbVptzl-74" value="" style="rounded=1;whiteSpace=wrap;html=1;fillColor=#dae8fc;strokeColor=#6c8ebf;fontFamily=Georgia;" vertex="1" parent="1">
          <mxGeometry x="199.62" y="471.5" width="205.25" height="40" as="geometry" />
        </mxCell>
        <mxCell id="vv8YXxYiMxJcPnbVptzl-75" value="&lt;h5&gt;&lt;font size=&quot;1&quot;&gt;Self&amp;nbsp; Attention&amp;nbsp; Encoder&lt;/font&gt;&lt;/h5&gt;" style="text;html=1;strokeColor=none;fillColor=none;align=center;verticalAlign=middle;whiteSpace=wrap;rounded=0;fontFamily=Georgia;" vertex="1" parent="1">
          <mxGeometry x="223.87" y="481.5" width="163.5" height="20" as="geometry" />
        </mxCell>
        <mxCell id="vv8YXxYiMxJcPnbVptzl-76" value="" style="rounded=1;whiteSpace=wrap;html=1;fillColor=#d5e8d4;strokeColor=#82b366;fontFamily=Georgia;" vertex="1" parent="1">
          <mxGeometry x="199.5" y="411.5" width="205.5" height="40" as="geometry" />
        </mxCell>
        <mxCell id="vv8YXxYiMxJcPnbVptzl-77" value="&lt;h5&gt;&lt;font size=&quot;1&quot;&gt;Class&amp;nbsp; Attention&amp;nbsp; Encoder&lt;/font&gt;&lt;/h5&gt;" style="text;html=1;strokeColor=none;fillColor=none;align=center;verticalAlign=middle;whiteSpace=wrap;rounded=0;fontFamily=Georgia;" vertex="1" parent="1">
          <mxGeometry x="215.5" y="421.5" width="184.5" height="20" as="geometry" />
        </mxCell>
        <mxCell id="vv8YXxYiMxJcPnbVptzl-78" value="" style="endArrow=classic;html=1;rounded=0;fontFamily=Georgia;fontSize=12;fontColor=default;sourcePerimeterSpacing=216;strokeColor=#FF66FF;" edge="1" parent="1">
          <mxGeometry width="50" height="50" relative="1" as="geometry">
            <mxPoint x="154.8699999999999" y="441.5" as="sourcePoint" />
            <mxPoint x="199.3699999999999" y="441.5" as="targetPoint" />
          </mxGeometry>
        </mxCell>
        <mxCell id="vv8YXxYiMxJcPnbVptzl-79" value="" style="rounded=1;whiteSpace=wrap;html=1;fontFamily=Georgia;fontSize=12;fontColor=default;strokeColor=default;fillColor=default;" vertex="1" parent="1">
          <mxGeometry x="156.5" y="531.5" width="290" height="55" as="geometry" />
        </mxCell>
        <mxCell id="vv8YXxYiMxJcPnbVptzl-80" value="" style="html=1;whiteSpace=wrap;shape=isoCube2;backgroundOutline=1;isoAngle=15;fontFamily=Georgia;fontSize=12;strokeColor=#ae4132;fillColor=#FCDBD7;direction=west;rotation=45;" vertex="1" parent="1">
          <mxGeometry x="191.31" y="533.64" width="12.69" height="52.86" as="geometry" />
        </mxCell>
        <mxCell id="vv8YXxYiMxJcPnbVptzl-81" value="" style="html=1;whiteSpace=wrap;shape=isoCube2;backgroundOutline=1;isoAngle=15;fontFamily=Georgia;fontSize=12;strokeColor=#ae4132;fillColor=#F0D0CC;direction=west;rotation=45;" vertex="1" parent="1">
          <mxGeometry x="258.81" y="533.64" width="12.69" height="52.86" as="geometry" />
        </mxCell>
        <mxCell id="vv8YXxYiMxJcPnbVptzl-82" value="" style="html=1;whiteSpace=wrap;shape=isoCube2;backgroundOutline=1;isoAngle=15;fontFamily=Georgia;fontSize=12;strokeColor=#ae4132;fillColor=#E8C9C6;direction=west;rotation=45;" vertex="1" parent="1">
          <mxGeometry x="328.06" y="533.64" width="12.69" height="52.86" as="geometry" />
        </mxCell>
        <mxCell id="vv8YXxYiMxJcPnbVptzl-83" value="" style="html=1;whiteSpace=wrap;shape=isoCube2;backgroundOutline=1;isoAngle=15;fontFamily=Georgia;fontSize=12;strokeColor=#ae4132;fillColor=#DEC1BD;direction=west;rotation=45;" vertex="1" parent="1">
          <mxGeometry x="403.5" y="533.64" width="12.69" height="52.86" as="geometry" />
        </mxCell>
        <mxCell id="vv8YXxYiMxJcPnbVptzl-84" value="" style="endArrow=classic;html=1;rounded=0;fontFamily=Georgia;fontSize=12;fontColor=default;sourcePerimeterSpacing=216;exitX=-0.005;exitY=0.476;exitDx=0;exitDy=0;exitPerimeter=0;" edge="1" parent="1" source="vv8YXxYiMxJcPnbVptzl-4">
          <mxGeometry width="50" height="50" relative="1" as="geometry">
            <mxPoint x="495" y="1051.5" as="sourcePoint" />
            <mxPoint x="305" y="1052.5" as="targetPoint" />
          </mxGeometry>
        </mxCell>
        <mxCell id="vv8YXxYiMxJcPnbVptzl-85" value="&lt;b&gt;【Class】 Embedding&lt;/b&gt;" style="text;whiteSpace=wrap;html=1;fontSize=12;fontFamily=Georgia;fontColor=default;" vertex="1" parent="1">
          <mxGeometry x="54" y="416" width="160" height="25" as="geometry" />
        </mxCell>
        <mxCell id="vv8YXxYiMxJcPnbVptzl-86" value="" style="endArrow=classic;html=1;rounded=0;fontFamily=Georgia;fontSize=12;fontColor=default;sourcePerimeterSpacing=216;strokeColor=#FF66FF;exitX=0.085;exitY=-0.025;exitDx=0;exitDy=0;exitPerimeter=0;" edge="1" parent="1" source="vv8YXxYiMxJcPnbVptzl-76">
          <mxGeometry width="50" height="50" relative="1" as="geometry">
            <mxPoint x="174.8699999999999" y="461.5000000000001" as="sourcePoint" />
            <mxPoint x="217" y="391.5" as="targetPoint" />
          </mxGeometry>
        </mxCell>
        <mxCell id="vv8YXxYiMxJcPnbVptzl-87" value="&lt;b&gt;MLP&lt;/b&gt;" style="rounded=1;whiteSpace=wrap;html=1;fontFamily=Georgia;fontSize=12;fontColor=default;strokeColor=#FF66FF;fillColor=#DEC1BD;" vertex="1" parent="1">
          <mxGeometry x="186.5" y="371.5" width="60" height="20" as="geometry" />
        </mxCell>
        <mxCell id="vv8YXxYiMxJcPnbVptzl-88" value="" style="endArrow=classic;html=1;rounded=0;fontFamily=Georgia;fontSize=12;fontColor=default;sourcePerimeterSpacing=216;strokeColor=#FF66FF;exitX=0.517;exitY=0;exitDx=0;exitDy=0;exitPerimeter=0;" edge="1" parent="1" source="vv8YXxYiMxJcPnbVptzl-87">
          <mxGeometry width="50" height="50" relative="1" as="geometry">
            <mxPoint x="265" y="401.5" as="sourcePoint" />
            <mxPoint x="217" y="351.5" as="targetPoint" />
          </mxGeometry>
        </mxCell>
        <mxCell id="vv8YXxYiMxJcPnbVptzl-89" value="&lt;b&gt;Class&lt;/b&gt;" style="text;html=1;strokeColor=none;fillColor=none;align=center;verticalAlign=middle;whiteSpace=wrap;rounded=0;fontFamily=Georgia;fontSize=13;fontColor=default;" vertex="1" parent="1">
          <mxGeometry x="186.5" y="331.5" width="60" height="30" as="geometry" />
        </mxCell>
        <mxCell id="vv8YXxYiMxJcPnbVptzl-90" value="" style="rounded=1;whiteSpace=wrap;html=1;fillColor=#dae8fc;strokeColor=#6c8ebf;fontFamily=Georgia;" vertex="1" parent="1">
          <mxGeometry x="455" y="381.5" width="75" height="190" as="geometry" />
        </mxCell>
        <mxCell id="vv8YXxYiMxJcPnbVptzl-91" value="&lt;b&gt;SA&lt;/b&gt;" style="rounded=1;whiteSpace=wrap;html=1;fontFamily=Georgia;fontSize=13;fontColor=default;strokeColor=#000000;fillColor=#FFFFFF;" vertex="1" parent="1">
          <mxGeometry x="462" y="521" width="60" height="28" as="geometry" />
        </mxCell>
        <mxCell id="vv8YXxYiMxJcPnbVptzl-92" value="" style="endArrow=none;html=1;rounded=0;fontFamily=Georgia;fontSize=13;fontColor=default;sourcePerimeterSpacing=216;strokeColor=#C4ABA7;" edge="1" parent="1">
          <mxGeometry width="50" height="50" relative="1" as="geometry">
            <mxPoint x="472" y="521" as="sourcePoint" />
            <mxPoint x="472" y="501" as="targetPoint" />
          </mxGeometry>
        </mxCell>
        <mxCell id="vv8YXxYiMxJcPnbVptzl-93" value="" style="endArrow=none;html=1;rounded=0;fontFamily=Georgia;fontSize=13;fontColor=default;sourcePerimeterSpacing=216;strokeColor=#C4ABA7;" edge="1" parent="1">
          <mxGeometry width="50" height="50" relative="1" as="geometry">
            <mxPoint x="511.5" y="521" as="sourcePoint" />
            <mxPoint x="511.5" y="501" as="targetPoint" />
          </mxGeometry>
        </mxCell>
        <mxCell id="vv8YXxYiMxJcPnbVptzl-94" value="" style="endArrow=none;html=1;rounded=0;fontFamily=Georgia;fontSize=13;fontColor=default;sourcePerimeterSpacing=216;strokeColor=#C4ABA7;" edge="1" parent="1">
          <mxGeometry width="50" height="50" relative="1" as="geometry">
            <mxPoint x="499.5" y="521" as="sourcePoint" />
            <mxPoint x="499.5" y="501" as="targetPoint" />
          </mxGeometry>
        </mxCell>
        <mxCell id="vv8YXxYiMxJcPnbVptzl-95" value="" style="endArrow=none;html=1;rounded=0;fontFamily=Georgia;fontSize=13;fontColor=default;sourcePerimeterSpacing=216;strokeColor=#C4ABA7;" edge="1" parent="1">
          <mxGeometry width="50" height="50" relative="1" as="geometry">
            <mxPoint x="486" y="521" as="sourcePoint" />
            <mxPoint x="486" y="501" as="targetPoint" />
          </mxGeometry>
        </mxCell>
        <mxCell id="vv8YXxYiMxJcPnbVptzl-96" value="" style="endArrow=none;html=1;rounded=0;fontFamily=Georgia;fontSize=13;fontColor=default;sourcePerimeterSpacing=216;strokeColor=#E3C5C1;" edge="1" parent="1">
          <mxGeometry width="50" height="50" relative="1" as="geometry">
            <mxPoint x="472" y="441.5" as="sourcePoint" />
            <mxPoint x="472" y="421.5" as="targetPoint" />
          </mxGeometry>
        </mxCell>
        <mxCell id="vv8YXxYiMxJcPnbVptzl-97" value="" style="endArrow=none;html=1;rounded=0;fontFamily=Georgia;fontSize=13;fontColor=default;sourcePerimeterSpacing=216;strokeColor=#E3C5C1;" edge="1" parent="1">
          <mxGeometry width="50" height="50" relative="1" as="geometry">
            <mxPoint x="511.5" y="441.5" as="sourcePoint" />
            <mxPoint x="511.5" y="421.5" as="targetPoint" />
          </mxGeometry>
        </mxCell>
        <mxCell id="vv8YXxYiMxJcPnbVptzl-98" value="" style="endArrow=none;html=1;rounded=0;fontFamily=Georgia;fontSize=13;fontColor=default;sourcePerimeterSpacing=216;strokeColor=#E3C5C1;" edge="1" parent="1">
          <mxGeometry width="50" height="50" relative="1" as="geometry">
            <mxPoint x="499.5" y="441.5" as="sourcePoint" />
            <mxPoint x="499.5" y="421.5" as="targetPoint" />
          </mxGeometry>
        </mxCell>
        <mxCell id="vv8YXxYiMxJcPnbVptzl-99" value="" style="endArrow=none;html=1;rounded=0;fontFamily=Georgia;fontSize=13;fontColor=default;sourcePerimeterSpacing=216;strokeColor=#E3C5C1;" edge="1" parent="1">
          <mxGeometry width="50" height="50" relative="1" as="geometry">
            <mxPoint x="486" y="441.5" as="sourcePoint" />
            <mxPoint x="486" y="421.5" as="targetPoint" />
          </mxGeometry>
        </mxCell>
        <mxCell id="vv8YXxYiMxJcPnbVptzl-100" value="&lt;b&gt;FFN&lt;/b&gt;" style="rounded=1;whiteSpace=wrap;html=1;fontFamily=Georgia;fontSize=13;fontColor=default;strokeColor=#000000;fillColor=#FFFFFF;" vertex="1" parent="1">
          <mxGeometry x="462" y="401" width="60" height="28" as="geometry" />
        </mxCell>
        <mxCell id="vv8YXxYiMxJcPnbVptzl-101" value="" style="endArrow=none;html=1;rounded=0;fontFamily=Georgia;fontSize=13;fontColor=default;sourcePerimeterSpacing=216;strokeColor=#E0C2BF;" edge="1" parent="1">
          <mxGeometry width="50" height="50" relative="1" as="geometry">
            <mxPoint x="472.0500000000002" y="483.5" as="sourcePoint" />
            <mxPoint x="472.0500000000002" y="463.5" as="targetPoint" />
          </mxGeometry>
        </mxCell>
        <mxCell id="vv8YXxYiMxJcPnbVptzl-102" value="" style="endArrow=none;html=1;rounded=0;fontFamily=Georgia;fontSize=13;fontColor=default;sourcePerimeterSpacing=216;strokeColor=#E0C2BF;" edge="1" parent="1">
          <mxGeometry width="50" height="50" relative="1" as="geometry">
            <mxPoint x="511.5500000000002" y="483.5" as="sourcePoint" />
            <mxPoint x="511.5500000000002" y="463.5" as="targetPoint" />
          </mxGeometry>
        </mxCell>
        <mxCell id="vv8YXxYiMxJcPnbVptzl-103" value="" style="endArrow=none;html=1;rounded=0;fontFamily=Georgia;fontSize=13;fontColor=default;sourcePerimeterSpacing=216;strokeColor=#E0C2BF;" edge="1" parent="1">
          <mxGeometry width="50" height="50" relative="1" as="geometry">
            <mxPoint x="486.0500000000002" y="483.5" as="sourcePoint" />
            <mxPoint x="486.0500000000002" y="463.5" as="targetPoint" />
          </mxGeometry>
        </mxCell>
        <mxCell id="vv8YXxYiMxJcPnbVptzl-104" value="" style="endArrow=none;html=1;rounded=0;fontFamily=Georgia;fontSize=13;fontColor=default;sourcePerimeterSpacing=216;strokeColor=#E0C2BF;" edge="1" parent="1">
          <mxGeometry width="50" height="50" relative="1" as="geometry">
            <mxPoint x="499.5500000000002" y="483.5" as="sourcePoint" />
            <mxPoint x="499.5500000000002" y="463.5" as="targetPoint" />
          </mxGeometry>
        </mxCell>
        <mxCell id="vv8YXxYiMxJcPnbVptzl-105" value="&lt;b&gt;SA&lt;/b&gt;" style="rounded=1;whiteSpace=wrap;html=1;fontFamily=Georgia;fontSize=13;fontColor=default;strokeColor=#000000;fillColor=#FFFFFF;" vertex="1" parent="1">
          <mxGeometry x="462" y="441" width="60" height="28" as="geometry" />
        </mxCell>
        <mxCell id="vv8YXxYiMxJcPnbVptzl-106" value="&lt;b&gt;FFN&lt;/b&gt;" style="rounded=1;whiteSpace=wrap;html=1;fontFamily=Georgia;fontSize=13;fontColor=default;strokeColor=#000000;fillColor=#FFFFFF;" vertex="1" parent="1">
          <mxGeometry x="462" y="480.5" width="60" height="28" as="geometry" />
        </mxCell>
        <mxCell id="vv8YXxYiMxJcPnbVptzl-107" value="" style="rounded=1;whiteSpace=wrap;html=1;fillColor=#d5e8d4;strokeColor=#82b366;fontFamily=Georgia;" vertex="1" parent="1">
          <mxGeometry x="639.5" y="381.5" width="75" height="190" as="geometry" />
        </mxCell>
        <mxCell id="vv8YXxYiMxJcPnbVptzl-108" value="" style="endArrow=none;html=1;rounded=0;fontFamily=Georgia;fontSize=13;fontColor=default;sourcePerimeterSpacing=216;strokeColor=#E3C5C1;" edge="1" parent="1">
          <mxGeometry width="50" height="50" relative="1" as="geometry">
            <mxPoint x="679.25" y="558.5" as="sourcePoint" />
            <mxPoint x="679.25" y="538.5" as="targetPoint" />
          </mxGeometry>
        </mxCell>
        <mxCell id="vv8YXxYiMxJcPnbVptzl-109" value="" style="endArrow=none;html=1;rounded=0;fontFamily=Georgia;fontSize=13;fontColor=default;sourcePerimeterSpacing=216;strokeColor=#E3C5C1;" edge="1" parent="1">
          <mxGeometry width="50" height="50" relative="1" as="geometry">
            <mxPoint x="697.75" y="558.5" as="sourcePoint" />
            <mxPoint x="697.75" y="538.5" as="targetPoint" />
          </mxGeometry>
        </mxCell>
        <mxCell id="vv8YXxYiMxJcPnbVptzl-110" value="" style="endArrow=none;html=1;rounded=0;fontFamily=Georgia;fontSize=13;fontColor=default;sourcePerimeterSpacing=216;strokeColor=#E3C5C1;" edge="1" parent="1">
          <mxGeometry width="50" height="50" relative="1" as="geometry">
            <mxPoint x="691.25" y="558.5" as="sourcePoint" />
            <mxPoint x="691.25" y="538.5" as="targetPoint" />
          </mxGeometry>
        </mxCell>
        <mxCell id="vv8YXxYiMxJcPnbVptzl-111" value="" style="endArrow=none;html=1;rounded=0;fontFamily=Georgia;fontSize=13;fontColor=default;sourcePerimeterSpacing=216;strokeColor=#E3C5C1;" edge="1" parent="1">
          <mxGeometry width="50" height="50" relative="1" as="geometry">
            <mxPoint x="685.25" y="558.5" as="sourcePoint" />
            <mxPoint x="685.25" y="538.5" as="targetPoint" />
          </mxGeometry>
        </mxCell>
        <mxCell id="vv8YXxYiMxJcPnbVptzl-112" value="&lt;b&gt;FFN&lt;/b&gt;" style="rounded=1;whiteSpace=wrap;html=1;fontFamily=Georgia;fontSize=13;fontColor=default;strokeColor=#000000;fillColor=#FFFFFF;" vertex="1" parent="1">
          <mxGeometry x="646.25" y="484" width="30" height="18.5" as="geometry" />
        </mxCell>
        <mxCell id="vv8YXxYiMxJcPnbVptzl-113" value="" style="endArrow=none;html=1;rounded=0;fontFamily=Georgia;fontSize=13;fontColor=default;sourcePerimeterSpacing=216;strokeColor=#E3C5C1;" edge="1" parent="1">
          <mxGeometry width="50" height="50" relative="1" as="geometry">
            <mxPoint x="679.25" y="521" as="sourcePoint" />
            <mxPoint x="679.25" y="466" as="targetPoint" />
          </mxGeometry>
        </mxCell>
        <mxCell id="vv8YXxYiMxJcPnbVptzl-114" value="" style="endArrow=none;html=1;rounded=0;fontFamily=Georgia;fontSize=13;fontColor=default;sourcePerimeterSpacing=216;strokeColor=#E3C5C1;" edge="1" parent="1">
          <mxGeometry width="50" height="50" relative="1" as="geometry">
            <mxPoint x="697.25" y="521" as="sourcePoint" />
            <mxPoint x="697.25" y="466" as="targetPoint" />
          </mxGeometry>
        </mxCell>
        <mxCell id="vv8YXxYiMxJcPnbVptzl-115" value="" style="endArrow=none;html=1;rounded=0;fontFamily=Georgia;fontSize=13;fontColor=default;sourcePerimeterSpacing=216;strokeColor=#E3C5C1;" edge="1" parent="1">
          <mxGeometry width="50" height="50" relative="1" as="geometry">
            <mxPoint x="685.25" y="521" as="sourcePoint" />
            <mxPoint x="685.25" y="466" as="targetPoint" />
          </mxGeometry>
        </mxCell>
        <mxCell id="vv8YXxYiMxJcPnbVptzl-116" value="" style="endArrow=none;html=1;rounded=0;fontFamily=Georgia;fontSize=13;fontColor=default;sourcePerimeterSpacing=216;strokeColor=#E3C5C1;" edge="1" parent="1">
          <mxGeometry width="50" height="50" relative="1" as="geometry">
            <mxPoint x="691.25" y="521" as="sourcePoint" />
            <mxPoint x="691.25" y="466" as="targetPoint" />
          </mxGeometry>
        </mxCell>
        <mxCell id="vv8YXxYiMxJcPnbVptzl-117" value="&lt;b&gt;CA&lt;/b&gt;" style="rounded=1;whiteSpace=wrap;html=1;fontFamily=Georgia;fontSize=13;fontColor=default;strokeColor=#000000;fillColor=#FFFFFF;" vertex="1" parent="1">
          <mxGeometry x="645.5" y="438" width="60" height="28" as="geometry" />
        </mxCell>
        <mxCell id="vv8YXxYiMxJcPnbVptzl-118" value="&lt;b&gt;CA&lt;/b&gt;" style="rounded=1;whiteSpace=wrap;html=1;fontFamily=Georgia;fontSize=13;fontColor=default;strokeColor=#000000;fillColor=#FFFFFF;" vertex="1" parent="1">
          <mxGeometry x="648.25" y="518" width="60" height="28" as="geometry" />
        </mxCell>
        <mxCell id="vv8YXxYiMxJcPnbVptzl-119" value="" style="endArrow=none;html=1;rounded=0;fontFamily=Georgia;fontSize=13;fontColor=default;sourcePerimeterSpacing=216;strokeColor=#FF66FF;" edge="1" parent="1">
          <mxGeometry width="50" height="50" relative="1" as="geometry">
            <mxPoint x="661.25" y="559" as="sourcePoint" />
            <mxPoint x="661.25" y="546" as="targetPoint" />
          </mxGeometry>
        </mxCell>
        <mxCell id="vv8YXxYiMxJcPnbVptzl-120" value="" style="endArrow=none;html=1;rounded=0;fontFamily=Georgia;fontSize=13;fontColor=default;sourcePerimeterSpacing=216;strokeColor=#FF66FF;" edge="1" parent="1">
          <mxGeometry width="50" height="50" relative="1" as="geometry">
            <mxPoint x="661.25" y="484" as="sourcePoint" />
            <mxPoint x="661.25" y="466" as="targetPoint" />
          </mxGeometry>
        </mxCell>
        <mxCell id="vv8YXxYiMxJcPnbVptzl-121" value="" style="endArrow=none;html=1;rounded=0;fontFamily=Georgia;fontSize=13;fontColor=default;sourcePerimeterSpacing=216;strokeColor=#FF66FF;" edge="1" parent="1">
          <mxGeometry width="50" height="50" relative="1" as="geometry">
            <mxPoint x="661.25" y="518" as="sourcePoint" />
            <mxPoint x="661.25" y="503" as="targetPoint" />
          </mxGeometry>
        </mxCell>
        <mxCell id="vv8YXxYiMxJcPnbVptzl-122" value="&lt;b&gt;FFN&lt;/b&gt;" style="rounded=1;whiteSpace=wrap;html=1;fontFamily=Georgia;fontSize=13;fontColor=default;strokeColor=#000000;fillColor=#FFFFFF;" vertex="1" parent="1">
          <mxGeometry x="646.25" y="403" width="30" height="18.5" as="geometry" />
        </mxCell>
        <mxCell id="vv8YXxYiMxJcPnbVptzl-123" value="" style="endArrow=none;html=1;rounded=0;fontFamily=Georgia;fontSize=13;fontColor=default;sourcePerimeterSpacing=216;strokeColor=#FF66FF;" edge="1" parent="1">
          <mxGeometry width="50" height="50" relative="1" as="geometry">
            <mxPoint x="661.25" y="438" as="sourcePoint" />
            <mxPoint x="661.25" y="422" as="targetPoint" />
          </mxGeometry>
        </mxCell>
        <mxCell id="vv8YXxYiMxJcPnbVptzl-124" value="" style="endArrow=classic;html=1;rounded=0;fontFamily=Georgia;fontSize=13;fontColor=default;sourcePerimeterSpacing=216;strokeColor=#000000;exitX=0.5;exitY=-0.01;exitDx=0;exitDy=0;exitPerimeter=0;" edge="1" parent="1" source="vv8YXxYiMxJcPnbVptzl-32">
          <mxGeometry width="50" height="50" relative="1" as="geometry">
            <mxPoint x="345" y="691.5" as="sourcePoint" />
            <mxPoint x="301" y="701.5" as="targetPoint" />
          </mxGeometry>
        </mxCell>
        <mxCell id="vv8YXxYiMxJcPnbVptzl-125" value="" style="endArrow=classic;html=1;rounded=0;fontFamily=Georgia;fontSize=13;fontColor=default;sourcePerimeterSpacing=216;strokeColor=#000000;" edge="1" parent="1">
          <mxGeometry width="50" height="50" relative="1" as="geometry">
            <mxPoint x="301" y="679.5" as="sourcePoint" />
            <mxPoint x="301" y="661.5" as="targetPoint" />
          </mxGeometry>
        </mxCell>
        <mxCell id="vv8YXxYiMxJcPnbVptzl-126" value="" style="endArrow=classic;html=1;rounded=0;fontFamily=Georgia;fontSize=13;fontColor=default;sourcePerimeterSpacing=216;strokeColor=#000000;" edge="1" parent="1">
          <mxGeometry width="50" height="50" relative="1" as="geometry">
            <mxPoint x="301" y="640.5" as="sourcePoint" />
            <mxPoint x="301" y="621.5" as="targetPoint" />
          </mxGeometry>
        </mxCell>
        <mxCell id="vv8YXxYiMxJcPnbVptzl-127" value="" style="endArrow=classic;html=1;rounded=0;fontFamily=Georgia;fontSize=13;fontColor=default;sourcePerimeterSpacing=216;strokeColor=#000000;" edge="1" parent="1">
          <mxGeometry width="50" height="50" relative="1" as="geometry">
            <mxPoint x="301" y="601.5" as="sourcePoint" />
            <mxPoint x="301" y="586.5" as="targetPoint" />
          </mxGeometry>
        </mxCell>
        <mxCell id="vv8YXxYiMxJcPnbVptzl-128" value="" style="endArrow=classic;html=1;rounded=0;fontFamily=Georgia;fontSize=13;fontColor=default;sourcePerimeterSpacing=216;strokeColor=#000000;" edge="1" parent="1">
          <mxGeometry width="50" height="50" relative="1" as="geometry">
            <mxPoint x="301" y="471.5" as="sourcePoint" />
            <mxPoint x="301" y="451.5" as="targetPoint" />
          </mxGeometry>
        </mxCell>
        <mxCell id="vv8YXxYiMxJcPnbVptzl-129" value="" style="endArrow=classic;html=1;rounded=0;fontFamily=Georgia;fontSize=13;fontColor=default;sourcePerimeterSpacing=216;strokeColor=#000000;" edge="1" parent="1">
          <mxGeometry width="50" height="50" relative="1" as="geometry">
            <mxPoint x="301" y="531.5" as="sourcePoint" />
            <mxPoint x="301" y="511.5" as="targetPoint" />
          </mxGeometry>
        </mxCell>
        <mxCell id="vv8YXxYiMxJcPnbVptzl-130" value="&lt;h5&gt;&lt;font size=&quot;1&quot;&gt;Self&amp;nbsp; Attention&amp;nbsp; Encoder&lt;/font&gt;&lt;/h5&gt;" style="text;html=1;strokeColor=none;fillColor=none;align=center;verticalAlign=middle;whiteSpace=wrap;rounded=0;rotation=0;fontFamily=Georgia;" vertex="1" parent="1">
          <mxGeometry x="415.5" y="351.5" width="163.5" height="20" as="geometry" />
        </mxCell>
        <mxCell id="vv8YXxYiMxJcPnbVptzl-131" value="&lt;h5&gt;&lt;font size=&quot;1&quot;&gt;Class&amp;nbsp; Attention&amp;nbsp; Encoder&lt;/font&gt;&lt;/h5&gt;" style="text;html=1;strokeColor=none;fillColor=none;align=center;verticalAlign=middle;whiteSpace=wrap;rounded=0;rotation=0;fontFamily=Georgia;" vertex="1" parent="1">
          <mxGeometry x="584" y="351.5" width="190" height="20" as="geometry" />
        </mxCell>
        <mxCell id="vv8YXxYiMxJcPnbVptzl-132" value="" style="endArrow=none;dashed=1;html=1;dashPattern=1 3;strokeWidth=2;rounded=0;fontFamily=Georgia;fontSize=13;fontColor=default;sourcePerimeterSpacing=216;" edge="1" parent="1">
          <mxGeometry width="50" height="50" relative="1" as="geometry">
            <mxPoint x="584" y="590" as="sourcePoint" />
            <mxPoint x="584" y="320" as="targetPoint" />
          </mxGeometry>
        </mxCell>
      </root>
    </mxGraphModel>
  </diagram>
  <diagram id="KFtFLKG0Z57aDq4u8Z11" name="DMSA">
    <mxGraphModel dx="1422" dy="779" grid="1" gridSize="10" guides="1" tooltips="1" connect="1" arrows="1" fold="1" page="1" pageScale="1" pageWidth="827" pageHeight="1169" math="0" shadow="0">
      <root>
        <mxCell id="0" />
        <mxCell id="1" parent="0" />
        <mxCell id="Ga7ed6t_vaXrjPGYsEwe-1" value="" style="rounded=1;whiteSpace=wrap;html=1;fontFamily=Georgia;fontSize=10;strokeWidth=1.5;fillColor=#eeeeee;strokeColor=#36393d;fontStyle=1" vertex="1" parent="1">
          <mxGeometry x="541" y="340" width="140" height="303.75" as="geometry" />
        </mxCell>
        <mxCell id="Ga7ed6t_vaXrjPGYsEwe-2" value="" style="rounded=1;whiteSpace=wrap;html=1;fontFamily=Georgia;fontSize=10;strokeWidth=1.5;fillColor=#eeeeee;strokeColor=#36393d;fontStyle=1" vertex="1" parent="1">
          <mxGeometry x="381" y="340" width="140" height="304.75" as="geometry" />
        </mxCell>
        <mxCell id="Ga7ed6t_vaXrjPGYsEwe-3" value="" style="rounded=1;whiteSpace=wrap;html=1;fontFamily=Georgia;fontSize=10;strokeWidth=1.5;fillColor=#eeeeee;strokeColor=#36393d;fontStyle=1" vertex="1" parent="1">
          <mxGeometry x="221" y="340" width="140" height="304.75" as="geometry" />
        </mxCell>
        <mxCell id="Ga7ed6t_vaXrjPGYsEwe-4" value="" style="rounded=0;whiteSpace=wrap;html=1;fontFamily=Georgia;strokeWidth=1.5;fontStyle=1" vertex="1" parent="1">
          <mxGeometry x="255.57999999999998" y="373.75" width="80" height="20" as="geometry" />
        </mxCell>
        <mxCell id="Ga7ed6t_vaXrjPGYsEwe-5" value="" style="rounded=0;whiteSpace=wrap;html=1;fontFamily=Georgia;strokeWidth=1.5;fillColor=#ffcccc;strokeColor=#36393d;fontStyle=1" vertex="1" parent="1">
          <mxGeometry x="250.57999999999998" y="548.75" width="90" height="40" as="geometry" />
        </mxCell>
        <mxCell id="Ga7ed6t_vaXrjPGYsEwe-6" value="" style="rounded=0;whiteSpace=wrap;html=1;fontFamily=Georgia;strokeWidth=1.5;fillColor=#b0e3e6;strokeColor=#0e8088;fontStyle=1" vertex="1" parent="1">
          <mxGeometry x="250.57999999999998" y="428.75" width="90" height="40" as="geometry" />
        </mxCell>
        <mxCell id="Ga7ed6t_vaXrjPGYsEwe-7" style="edgeStyle=orthogonalEdgeStyle;orthogonalLoop=1;jettySize=auto;html=1;rounded=0;exitX=0.145;exitY=0.145;exitDx=0;exitDy=0;exitPerimeter=0;fontFamily=Georgia;strokeWidth=1.5;fontStyle=1" edge="1" parent="1" source="Ga7ed6t_vaXrjPGYsEwe-8" target="Ga7ed6t_vaXrjPGYsEwe-6">
          <mxGeometry relative="1" as="geometry" />
        </mxCell>
        <mxCell id="Ga7ed6t_vaXrjPGYsEwe-8" value="" style="verticalLabelPosition=bottom;verticalAlign=top;html=1;shape=mxgraph.flowchart.or;aspect=fixed;rotation=45;fontFamily=Georgia;strokeWidth=1.5;fontStyle=1" vertex="1" parent="1">
          <mxGeometry x="285.58" y="518.75" width="20" height="20" as="geometry" />
        </mxCell>
        <mxCell id="Ga7ed6t_vaXrjPGYsEwe-9" value="" style="rounded=0;whiteSpace=wrap;html=1;fontFamily=Georgia;strokeWidth=1.5;fontStyle=1" vertex="1" parent="1">
          <mxGeometry x="255.57999999999998" y="488.75" width="80" height="20" as="geometry" />
        </mxCell>
        <mxCell id="Ga7ed6t_vaXrjPGYsEwe-10" value="" style="endArrow=classic;html=1;rounded=0;fontFamily=Georgia;strokeWidth=1.5;fontStyle=1" edge="1" parent="1">
          <mxGeometry width="50" height="50" relative="1" as="geometry">
            <mxPoint x="250.57999999999993" y="598.75" as="sourcePoint" />
            <mxPoint x="250.57999999999993" y="588.75" as="targetPoint" />
          </mxGeometry>
        </mxCell>
        <mxCell id="Ga7ed6t_vaXrjPGYsEwe-11" value="" style="endArrow=classic;html=1;rounded=0;fontFamily=Georgia;strokeWidth=1.5;fontStyle=1" edge="1" parent="1">
          <mxGeometry width="50" height="50" relative="1" as="geometry">
            <mxPoint x="339.8899999999999" y="598.75" as="sourcePoint" />
            <mxPoint x="339.8899999999999" y="588.75" as="targetPoint" />
          </mxGeometry>
        </mxCell>
        <mxCell id="Ga7ed6t_vaXrjPGYsEwe-12" value="" style="endArrow=classic;html=1;rounded=0;exitX=0.1;exitY=0.5;exitDx=0;exitDy=0;exitPerimeter=0;fontFamily=Georgia;strokeWidth=1.5;fontStyle=1" edge="1" parent="1" source="Ga7ed6t_vaXrjPGYsEwe-14">
          <mxGeometry width="50" height="50" relative="1" as="geometry">
            <mxPoint x="295.24" y="608.75" as="sourcePoint" />
            <mxPoint x="295.2399999999998" y="588.75" as="targetPoint" />
          </mxGeometry>
        </mxCell>
        <mxCell id="Ga7ed6t_vaXrjPGYsEwe-13" value="" style="endArrow=none;html=1;rounded=0;startArrow=none;fontFamily=Georgia;strokeWidth=1.5;fontStyle=1" edge="1" parent="1" source="Ga7ed6t_vaXrjPGYsEwe-14">
          <mxGeometry width="50" height="50" relative="1" as="geometry">
            <mxPoint x="250.57999999999998" y="608.75" as="sourcePoint" />
            <mxPoint x="340.5799999999999" y="608.75" as="targetPoint" />
          </mxGeometry>
        </mxCell>
        <mxCell id="Ga7ed6t_vaXrjPGYsEwe-14" value="" style="shape=curlyBracket;whiteSpace=wrap;html=1;rounded=1;flipH=1;rotation=90;size=0.5;fontFamily=Georgia;strokeWidth=1.5;fontStyle=1" vertex="1" parent="1">
          <mxGeometry x="285.58" y="558.75" width="20" height="90" as="geometry" />
        </mxCell>
        <mxCell id="Ga7ed6t_vaXrjPGYsEwe-15" value="" style="endArrow=none;html=1;rounded=0;fontFamily=Georgia;strokeWidth=1.5;fontStyle=1" edge="1" parent="1" target="Ga7ed6t_vaXrjPGYsEwe-14">
          <mxGeometry width="50" height="50" relative="1" as="geometry">
            <mxPoint x="250.57999999999993" y="608.75" as="sourcePoint" />
            <mxPoint x="340.58" y="608.75" as="targetPoint" />
          </mxGeometry>
        </mxCell>
        <mxCell id="Ga7ed6t_vaXrjPGYsEwe-16" value="" style="endArrow=none;html=1;rounded=0;fontFamily=Georgia;strokeWidth=1.5;fontStyle=1" edge="1" parent="1">
          <mxGeometry width="50" height="50" relative="1" as="geometry">
            <mxPoint x="295.2399999999998" y="608.75" as="sourcePoint" />
            <mxPoint x="295.2399999999998" y="628.75" as="targetPoint" />
          </mxGeometry>
        </mxCell>
        <mxCell id="Ga7ed6t_vaXrjPGYsEwe-17" value="" style="endArrow=none;html=1;rounded=0;exitX=0.145;exitY=0.855;exitDx=0;exitDy=0;exitPerimeter=0;fontFamily=Georgia;strokeWidth=1.5;fontStyle=1" edge="1" parent="1" source="Ga7ed6t_vaXrjPGYsEwe-8">
          <mxGeometry width="50" height="50" relative="1" as="geometry">
            <mxPoint x="340.58" y="578.75" as="sourcePoint" />
            <mxPoint x="295.5799999999999" y="618.75" as="targetPoint" />
            <Array as="points">
              <mxPoint x="240.57999999999998" y="528.75" />
              <mxPoint x="240.57999999999998" y="618.75" />
            </Array>
          </mxGeometry>
        </mxCell>
        <mxCell id="Ga7ed6t_vaXrjPGYsEwe-18" value="" style="endArrow=none;html=1;shadow=0;curved=1;jumpStyle=line;exitX=0.5;exitY=0;exitDx=0;exitDy=0;entryX=0.855;entryY=0.855;entryDx=0;entryDy=0;entryPerimeter=0;fontFamily=Georgia;strokeWidth=1.5;fontStyle=1" edge="1" parent="1" source="Ga7ed6t_vaXrjPGYsEwe-5" target="Ga7ed6t_vaXrjPGYsEwe-8">
          <mxGeometry width="50" height="50" relative="1" as="geometry">
            <mxPoint x="340.58" y="578.75" as="sourcePoint" />
            <mxPoint x="390.58" y="528.75" as="targetPoint" />
          </mxGeometry>
        </mxCell>
        <mxCell id="Ga7ed6t_vaXrjPGYsEwe-19" value="" style="verticalLabelPosition=bottom;verticalAlign=top;html=1;shape=mxgraph.flowchart.or;aspect=fixed;rotation=45;fontFamily=Georgia;strokeWidth=1.5;fontStyle=1" vertex="1" parent="1">
          <mxGeometry x="285.58" y="403.75" width="20" height="20" as="geometry" />
        </mxCell>
        <mxCell id="Ga7ed6t_vaXrjPGYsEwe-20" value="" style="endArrow=none;html=1;rounded=0;exitX=0.145;exitY=0.855;exitDx=0;exitDy=0;exitPerimeter=0;fontFamily=Georgia;strokeWidth=1.5;fontStyle=1" edge="1" parent="1">
          <mxGeometry width="50" height="50" relative="1" as="geometry">
            <mxPoint x="285.5390837071509" y="413.75" as="sourcePoint" />
            <mxPoint x="295.5799999999999" y="483.75" as="targetPoint" />
            <Array as="points">
              <mxPoint x="260.58" y="413.75" />
              <mxPoint x="240.57999999999998" y="413.75" />
              <mxPoint x="240.57999999999998" y="483.75" />
            </Array>
          </mxGeometry>
        </mxCell>
        <mxCell id="Ga7ed6t_vaXrjPGYsEwe-21" value="" style="endArrow=none;html=1;shadow=0;curved=1;jumpStyle=line;entryX=0.5;entryY=1;entryDx=0;entryDy=0;exitX=0.5;exitY=0;exitDx=0;exitDy=0;fontFamily=Georgia;strokeWidth=1.5;fontStyle=1" edge="1" parent="1" source="Ga7ed6t_vaXrjPGYsEwe-6">
          <mxGeometry width="50" height="50" relative="1" as="geometry">
            <mxPoint x="340.58" y="578.75" as="sourcePoint" />
            <mxPoint x="295.5799999999999" y="393.75" as="targetPoint" />
          </mxGeometry>
        </mxCell>
        <mxCell id="Ga7ed6t_vaXrjPGYsEwe-22" value="Multi-Head Attention&lt;br&gt;" style="text;html=1;strokeColor=none;fillColor=none;align=center;verticalAlign=middle;whiteSpace=wrap;rounded=0;fontFamily=Georgia;strokeWidth=1.5;fontStyle=1" vertex="1" parent="1">
          <mxGeometry x="255.87" y="558.75" width="80.42" height="20" as="geometry" />
        </mxCell>
        <mxCell id="Ga7ed6t_vaXrjPGYsEwe-23" value="LayerNorm" style="text;html=1;align=center;verticalAlign=middle;resizable=0;points=[];autosize=1;strokeColor=#b46504;fillColor=#fad7ac;fontFamily=Georgia;strokeWidth=1.5;fontStyle=1" vertex="1" parent="1">
          <mxGeometry x="253.57999999999998" y="489.75" width="85" height="18" as="geometry" />
        </mxCell>
        <mxCell id="Ga7ed6t_vaXrjPGYsEwe-24" value="Feed Forward&lt;br&gt;" style="text;html=1;strokeColor=none;fillColor=none;align=center;verticalAlign=middle;whiteSpace=wrap;rounded=0;fontFamily=Georgia;strokeWidth=1.5;fontStyle=1" vertex="1" parent="1">
          <mxGeometry x="258.08" y="438.75" width="70" height="20" as="geometry" />
        </mxCell>
        <mxCell id="Ga7ed6t_vaXrjPGYsEwe-25" value="LayerNorm" style="text;html=1;align=center;verticalAlign=middle;resizable=0;points=[];autosize=1;strokeColor=#b46504;fillColor=#fad7ac;fontFamily=Georgia;strokeWidth=1.5;fontStyle=1" vertex="1" parent="1">
          <mxGeometry x="253.57999999999998" y="374.75" width="85" height="18" as="geometry" />
        </mxCell>
        <mxCell id="Ga7ed6t_vaXrjPGYsEwe-26" value="" style="rounded=0;whiteSpace=wrap;html=1;fontFamily=Georgia;strokeWidth=1.5;fillColor=#ffcccc;strokeColor=#36393d;fontStyle=1" vertex="1" parent="1">
          <mxGeometry x="406" y="548.75" width="90" height="40" as="geometry" />
        </mxCell>
        <mxCell id="Ga7ed6t_vaXrjPGYsEwe-27" value="" style="rounded=0;whiteSpace=wrap;html=1;fontFamily=Georgia;strokeWidth=1.5;fillColor=#b0e3e6;strokeColor=#0e8088;fontStyle=1" vertex="1" parent="1">
          <mxGeometry x="406" y="428.75" width="90" height="40" as="geometry" />
        </mxCell>
        <mxCell id="Ga7ed6t_vaXrjPGYsEwe-28" style="edgeStyle=orthogonalEdgeStyle;orthogonalLoop=1;jettySize=auto;html=1;rounded=0;exitX=0.145;exitY=0.145;exitDx=0;exitDy=0;exitPerimeter=0;fontFamily=Georgia;strokeWidth=1.5;fontStyle=1" edge="1" parent="1" source="Ga7ed6t_vaXrjPGYsEwe-29" target="Ga7ed6t_vaXrjPGYsEwe-27">
          <mxGeometry relative="1" as="geometry" />
        </mxCell>
        <mxCell id="Ga7ed6t_vaXrjPGYsEwe-29" value="" style="verticalLabelPosition=bottom;verticalAlign=top;html=1;shape=mxgraph.flowchart.or;aspect=fixed;rotation=45;fontFamily=Georgia;strokeWidth=1.5;fontStyle=1" vertex="1" parent="1">
          <mxGeometry x="441" y="518.75" width="20" height="20" as="geometry" />
        </mxCell>
        <mxCell id="Ga7ed6t_vaXrjPGYsEwe-30" value="" style="endArrow=classic;html=1;rounded=0;fontFamily=Georgia;strokeWidth=1.5;fontStyle=1" edge="1" parent="1">
          <mxGeometry width="50" height="50" relative="1" as="geometry">
            <mxPoint x="406" y="598.75" as="sourcePoint" />
            <mxPoint x="406" y="588.75" as="targetPoint" />
          </mxGeometry>
        </mxCell>
        <mxCell id="Ga7ed6t_vaXrjPGYsEwe-31" value="" style="endArrow=classic;html=1;rounded=0;fontFamily=Georgia;strokeWidth=1.5;fontStyle=1" edge="1" parent="1">
          <mxGeometry width="50" height="50" relative="1" as="geometry">
            <mxPoint x="495.30999999999995" y="598.75" as="sourcePoint" />
            <mxPoint x="495.30999999999995" y="588.75" as="targetPoint" />
          </mxGeometry>
        </mxCell>
        <mxCell id="Ga7ed6t_vaXrjPGYsEwe-32" value="" style="endArrow=classic;html=1;rounded=0;exitX=0.1;exitY=0.5;exitDx=0;exitDy=0;exitPerimeter=0;fontFamily=Georgia;strokeWidth=1.5;fontStyle=1" edge="1" parent="1" source="Ga7ed6t_vaXrjPGYsEwe-34">
          <mxGeometry width="50" height="50" relative="1" as="geometry">
            <mxPoint x="450.65999999999997" y="608.75" as="sourcePoint" />
            <mxPoint x="450.65999999999985" y="588.75" as="targetPoint" />
          </mxGeometry>
        </mxCell>
        <mxCell id="Ga7ed6t_vaXrjPGYsEwe-33" value="" style="endArrow=none;html=1;rounded=0;startArrow=none;fontFamily=Georgia;strokeWidth=1.5;fontStyle=1" edge="1" parent="1" source="Ga7ed6t_vaXrjPGYsEwe-34">
          <mxGeometry width="50" height="50" relative="1" as="geometry">
            <mxPoint x="406" y="608.75" as="sourcePoint" />
            <mxPoint x="496" y="608.75" as="targetPoint" />
          </mxGeometry>
        </mxCell>
        <mxCell id="Ga7ed6t_vaXrjPGYsEwe-34" value="" style="shape=curlyBracket;whiteSpace=wrap;html=1;rounded=1;flipH=1;rotation=90;size=0.5;fontFamily=Georgia;strokeWidth=1.5;fontStyle=1" vertex="1" parent="1">
          <mxGeometry x="441" y="558.75" width="20" height="90" as="geometry" />
        </mxCell>
        <mxCell id="Ga7ed6t_vaXrjPGYsEwe-35" value="" style="endArrow=none;html=1;rounded=0;fontFamily=Georgia;strokeWidth=1.5;fontStyle=1" edge="1" parent="1" target="Ga7ed6t_vaXrjPGYsEwe-34">
          <mxGeometry width="50" height="50" relative="1" as="geometry">
            <mxPoint x="406" y="608.75" as="sourcePoint" />
            <mxPoint x="496" y="608.75" as="targetPoint" />
          </mxGeometry>
        </mxCell>
        <mxCell id="Ga7ed6t_vaXrjPGYsEwe-36" value="" style="endArrow=none;html=1;rounded=0;fontFamily=Georgia;strokeWidth=1.5;fontStyle=1" edge="1" parent="1">
          <mxGeometry width="50" height="50" relative="1" as="geometry">
            <mxPoint x="450.65999999999985" y="608.75" as="sourcePoint" />
            <mxPoint x="450.65999999999985" y="628.75" as="targetPoint" />
          </mxGeometry>
        </mxCell>
        <mxCell id="Ga7ed6t_vaXrjPGYsEwe-37" value="" style="endArrow=none;html=1;rounded=0;exitX=0.145;exitY=0.855;exitDx=0;exitDy=0;exitPerimeter=0;fontFamily=Georgia;strokeWidth=1.5;fontStyle=1" edge="1" parent="1" source="Ga7ed6t_vaXrjPGYsEwe-29">
          <mxGeometry width="50" height="50" relative="1" as="geometry">
            <mxPoint x="496" y="578.75" as="sourcePoint" />
            <mxPoint x="451" y="618.75" as="targetPoint" />
            <Array as="points">
              <mxPoint x="396" y="528.75" />
              <mxPoint x="396" y="618.75" />
            </Array>
          </mxGeometry>
        </mxCell>
        <mxCell id="Ga7ed6t_vaXrjPGYsEwe-38" value="" style="endArrow=none;html=1;shadow=0;curved=1;jumpStyle=line;exitX=0.5;exitY=0;exitDx=0;exitDy=0;entryX=0.855;entryY=0.855;entryDx=0;entryDy=0;entryPerimeter=0;fontFamily=Georgia;strokeWidth=1.5;fontStyle=1" edge="1" parent="1" source="Ga7ed6t_vaXrjPGYsEwe-26" target="Ga7ed6t_vaXrjPGYsEwe-29">
          <mxGeometry width="50" height="50" relative="1" as="geometry">
            <mxPoint x="496" y="578.75" as="sourcePoint" />
            <mxPoint x="546" y="528.75" as="targetPoint" />
          </mxGeometry>
        </mxCell>
        <mxCell id="Ga7ed6t_vaXrjPGYsEwe-39" value="" style="verticalLabelPosition=bottom;verticalAlign=top;html=1;shape=mxgraph.flowchart.or;aspect=fixed;rotation=45;fontFamily=Georgia;strokeWidth=1.5;fontStyle=1" vertex="1" parent="1">
          <mxGeometry x="441" y="403.75" width="20" height="20" as="geometry" />
        </mxCell>
        <mxCell id="Ga7ed6t_vaXrjPGYsEwe-40" value="" style="endArrow=none;html=1;rounded=0;exitX=0.145;exitY=0.855;exitDx=0;exitDy=0;exitPerimeter=0;fontFamily=Georgia;strokeWidth=1.5;fontStyle=1" edge="1" parent="1">
          <mxGeometry width="50" height="50" relative="1" as="geometry">
            <mxPoint x="440.95908370715097" y="413.75" as="sourcePoint" />
            <mxPoint x="451" y="483.75" as="targetPoint" />
            <Array as="points">
              <mxPoint x="416" y="413.75" />
              <mxPoint x="396" y="413.75" />
              <mxPoint x="396" y="483.75" />
            </Array>
          </mxGeometry>
        </mxCell>
        <mxCell id="Ga7ed6t_vaXrjPGYsEwe-41" value="" style="endArrow=none;html=1;shadow=0;curved=1;jumpStyle=line;entryX=0.5;entryY=1;entryDx=0;entryDy=0;exitX=0.5;exitY=0;exitDx=0;exitDy=0;fontFamily=Georgia;strokeWidth=1.5;fontStyle=1" edge="1" parent="1" source="Ga7ed6t_vaXrjPGYsEwe-27">
          <mxGeometry width="50" height="50" relative="1" as="geometry">
            <mxPoint x="496" y="578.75" as="sourcePoint" />
            <mxPoint x="451" y="393.75" as="targetPoint" />
          </mxGeometry>
        </mxCell>
        <mxCell id="Ga7ed6t_vaXrjPGYsEwe-42" value="Multi-Head Attention&lt;br&gt;" style="text;html=1;strokeColor=none;fillColor=none;align=center;verticalAlign=middle;whiteSpace=wrap;rounded=0;fontFamily=Georgia;strokeWidth=1.5;fontStyle=1" vertex="1" parent="1">
          <mxGeometry x="411" y="558.75" width="80" height="20" as="geometry" />
        </mxCell>
        <mxCell id="Ga7ed6t_vaXrjPGYsEwe-43" value="Feed Forward&lt;br&gt;" style="text;html=1;strokeColor=none;fillColor=none;align=center;verticalAlign=middle;whiteSpace=wrap;rounded=0;fontFamily=Georgia;strokeWidth=1.5;fontStyle=1" vertex="1" parent="1">
          <mxGeometry x="411" y="438.75" width="52.5" height="20" as="geometry" />
        </mxCell>
        <mxCell id="Ga7ed6t_vaXrjPGYsEwe-44" value="&lt;i&gt;×&lt;/i&gt;&amp;nbsp;&amp;nbsp;α" style="text;html=1;strokeColor=none;fillColor=none;align=center;verticalAlign=middle;whiteSpace=wrap;rounded=0;fontFamily=Georgia;strokeWidth=1.5;fontStyle=1" vertex="1" parent="1">
          <mxGeometry x="451" y="434.25" width="60" height="30" as="geometry" />
        </mxCell>
        <mxCell id="Ga7ed6t_vaXrjPGYsEwe-45" value="" style="rounded=0;whiteSpace=wrap;html=1;fontFamily=Georgia;strokeWidth=1.5;fontStyle=1" vertex="1" parent="1">
          <mxGeometry x="576" y="373.75" width="80" height="20" as="geometry" />
        </mxCell>
        <mxCell id="Ga7ed6t_vaXrjPGYsEwe-46" value="" style="rounded=0;whiteSpace=wrap;html=1;fontFamily=Georgia;strokeWidth=1.5;fillColor=#ffcccc;strokeColor=#36393d;fontStyle=1" vertex="1" parent="1">
          <mxGeometry x="571" y="548.75" width="90" height="40" as="geometry" />
        </mxCell>
        <mxCell id="Ga7ed6t_vaXrjPGYsEwe-47" value="" style="rounded=0;whiteSpace=wrap;html=1;fontFamily=Georgia;strokeWidth=1.5;fillColor=#b0e3e6;strokeColor=#0e8088;fontStyle=1" vertex="1" parent="1">
          <mxGeometry x="561" y="428.75" width="110" height="45" as="geometry" />
        </mxCell>
        <mxCell id="Ga7ed6t_vaXrjPGYsEwe-48" style="edgeStyle=orthogonalEdgeStyle;orthogonalLoop=1;jettySize=auto;html=1;rounded=0;exitX=0.145;exitY=0.145;exitDx=0;exitDy=0;exitPerimeter=0;fontFamily=Georgia;strokeWidth=1.5;fontStyle=1" edge="1" parent="1" source="Ga7ed6t_vaXrjPGYsEwe-49" target="Ga7ed6t_vaXrjPGYsEwe-47">
          <mxGeometry relative="1" as="geometry" />
        </mxCell>
        <mxCell id="Ga7ed6t_vaXrjPGYsEwe-49" value="" style="verticalLabelPosition=bottom;verticalAlign=top;html=1;shape=mxgraph.flowchart.or;aspect=fixed;rotation=45;fontFamily=Georgia;strokeWidth=1.5;fontStyle=1" vertex="1" parent="1">
          <mxGeometry x="606" y="518.75" width="20" height="20" as="geometry" />
        </mxCell>
        <mxCell id="Ga7ed6t_vaXrjPGYsEwe-50" value="" style="rounded=0;whiteSpace=wrap;html=1;fontFamily=Georgia;strokeWidth=1.5;fontStyle=1" vertex="1" parent="1">
          <mxGeometry x="576" y="493.75" width="80" height="20" as="geometry" />
        </mxCell>
        <mxCell id="Ga7ed6t_vaXrjPGYsEwe-51" value="" style="endArrow=classic;html=1;rounded=0;fontFamily=Georgia;strokeWidth=1.5;fontStyle=1" edge="1" parent="1">
          <mxGeometry width="50" height="50" relative="1" as="geometry">
            <mxPoint x="571" y="598.75" as="sourcePoint" />
            <mxPoint x="571" y="588.75" as="targetPoint" />
          </mxGeometry>
        </mxCell>
        <mxCell id="Ga7ed6t_vaXrjPGYsEwe-52" value="" style="endArrow=classic;html=1;rounded=0;fontFamily=Georgia;strokeWidth=1.5;fontStyle=1" edge="1" parent="1">
          <mxGeometry width="50" height="50" relative="1" as="geometry">
            <mxPoint x="660.31" y="598.75" as="sourcePoint" />
            <mxPoint x="660.31" y="588.75" as="targetPoint" />
          </mxGeometry>
        </mxCell>
        <mxCell id="Ga7ed6t_vaXrjPGYsEwe-53" value="" style="endArrow=classic;html=1;rounded=0;exitX=0.1;exitY=0.5;exitDx=0;exitDy=0;exitPerimeter=0;fontFamily=Georgia;strokeWidth=1.5;fontStyle=1" edge="1" parent="1" source="Ga7ed6t_vaXrjPGYsEwe-55">
          <mxGeometry width="50" height="50" relative="1" as="geometry">
            <mxPoint x="615.66" y="608.75" as="sourcePoint" />
            <mxPoint x="615.6599999999999" y="588.75" as="targetPoint" />
          </mxGeometry>
        </mxCell>
        <mxCell id="Ga7ed6t_vaXrjPGYsEwe-54" value="" style="endArrow=none;html=1;rounded=0;startArrow=none;fontFamily=Georgia;strokeWidth=1.5;fontStyle=1" edge="1" parent="1" source="Ga7ed6t_vaXrjPGYsEwe-55">
          <mxGeometry width="50" height="50" relative="1" as="geometry">
            <mxPoint x="571" y="608.75" as="sourcePoint" />
            <mxPoint x="661" y="608.75" as="targetPoint" />
          </mxGeometry>
        </mxCell>
        <mxCell id="Ga7ed6t_vaXrjPGYsEwe-55" value="" style="shape=curlyBracket;whiteSpace=wrap;html=1;rounded=1;flipH=1;rotation=90;size=0.5;fontFamily=Georgia;strokeWidth=1.5;fontStyle=1" vertex="1" parent="1">
          <mxGeometry x="606" y="558.75" width="20" height="90" as="geometry" />
        </mxCell>
        <mxCell id="Ga7ed6t_vaXrjPGYsEwe-56" value="" style="endArrow=none;html=1;rounded=0;fontFamily=Georgia;strokeWidth=1.5;fontStyle=1" edge="1" parent="1" target="Ga7ed6t_vaXrjPGYsEwe-55">
          <mxGeometry width="50" height="50" relative="1" as="geometry">
            <mxPoint x="571" y="608.75" as="sourcePoint" />
            <mxPoint x="661" y="608.75" as="targetPoint" />
          </mxGeometry>
        </mxCell>
        <mxCell id="Ga7ed6t_vaXrjPGYsEwe-57" value="" style="endArrow=none;html=1;rounded=0;fontFamily=Georgia;strokeWidth=1.5;fontStyle=1" edge="1" parent="1">
          <mxGeometry width="50" height="50" relative="1" as="geometry">
            <mxPoint x="616" y="608.75" as="sourcePoint" />
            <mxPoint x="616" y="628.75" as="targetPoint" />
          </mxGeometry>
        </mxCell>
        <mxCell id="Ga7ed6t_vaXrjPGYsEwe-58" value="" style="endArrow=none;html=1;rounded=0;exitX=0.145;exitY=0.855;exitDx=0;exitDy=0;exitPerimeter=0;fontFamily=Georgia;strokeWidth=1.5;fontStyle=1" edge="1" parent="1" source="Ga7ed6t_vaXrjPGYsEwe-49">
          <mxGeometry width="50" height="50" relative="1" as="geometry">
            <mxPoint x="661" y="578.75" as="sourcePoint" />
            <mxPoint x="616" y="618.75" as="targetPoint" />
            <Array as="points">
              <mxPoint x="561" y="528.75" />
              <mxPoint x="561" y="618.75" />
            </Array>
          </mxGeometry>
        </mxCell>
        <mxCell id="Ga7ed6t_vaXrjPGYsEwe-59" value="" style="endArrow=none;html=1;shadow=0;curved=1;jumpStyle=line;exitX=0.5;exitY=0;exitDx=0;exitDy=0;entryX=0.855;entryY=0.855;entryDx=0;entryDy=0;entryPerimeter=0;fontFamily=Georgia;strokeWidth=1.5;fontStyle=1" edge="1" parent="1" source="Ga7ed6t_vaXrjPGYsEwe-46" target="Ga7ed6t_vaXrjPGYsEwe-49">
          <mxGeometry width="50" height="50" relative="1" as="geometry">
            <mxPoint x="661" y="578.75" as="sourcePoint" />
            <mxPoint x="711" y="528.75" as="targetPoint" />
          </mxGeometry>
        </mxCell>
        <mxCell id="Ga7ed6t_vaXrjPGYsEwe-60" value="" style="verticalLabelPosition=bottom;verticalAlign=top;html=1;shape=mxgraph.flowchart.or;aspect=fixed;rotation=45;fontFamily=Georgia;strokeWidth=1.5;fontStyle=1" vertex="1" parent="1">
          <mxGeometry x="606" y="403.75" width="20" height="20" as="geometry" />
        </mxCell>
        <mxCell id="Ga7ed6t_vaXrjPGYsEwe-61" value="" style="endArrow=none;html=1;rounded=0;exitX=0.145;exitY=0.855;exitDx=0;exitDy=0;exitPerimeter=0;fontFamily=Georgia;strokeWidth=1.5;fontStyle=1" edge="1" parent="1">
          <mxGeometry width="50" height="50" relative="1" as="geometry">
            <mxPoint x="605.959083707151" y="413.75" as="sourcePoint" />
            <mxPoint x="616" y="488.75" as="targetPoint" />
            <Array as="points">
              <mxPoint x="581" y="413.75" />
              <mxPoint x="551" y="413.75" />
              <mxPoint x="551" y="448.75" />
              <mxPoint x="551" y="488.75" />
            </Array>
          </mxGeometry>
        </mxCell>
        <mxCell id="Ga7ed6t_vaXrjPGYsEwe-62" value="" style="endArrow=none;html=1;shadow=0;curved=1;jumpStyle=line;entryX=0.5;entryY=1;entryDx=0;entryDy=0;exitX=0.5;exitY=0;exitDx=0;exitDy=0;fontFamily=Georgia;strokeWidth=1.5;fontStyle=1" edge="1" parent="1" source="Ga7ed6t_vaXrjPGYsEwe-47">
          <mxGeometry width="50" height="50" relative="1" as="geometry">
            <mxPoint x="661" y="578.75" as="sourcePoint" />
            <mxPoint x="616" y="393.75" as="targetPoint" />
          </mxGeometry>
        </mxCell>
        <mxCell id="Ga7ed6t_vaXrjPGYsEwe-63" value="Multi-Head Attention&lt;br&gt;" style="text;html=1;strokeColor=none;fillColor=none;align=center;verticalAlign=middle;whiteSpace=wrap;rounded=0;fontFamily=Georgia;strokeWidth=1.5;fontStyle=1" vertex="1" parent="1">
          <mxGeometry x="577" y="558.75" width="79" height="20" as="geometry" />
        </mxCell>
        <mxCell id="Ga7ed6t_vaXrjPGYsEwe-64" value="LayerNorm" style="text;html=1;align=center;verticalAlign=middle;resizable=0;points=[];autosize=1;strokeColor=#36393d;fillColor=#ffcc99;fontFamily=Georgia;strokeWidth=1.5;fontStyle=1" vertex="1" parent="1">
          <mxGeometry x="574" y="494.44" width="85" height="18" as="geometry" />
        </mxCell>
        <mxCell id="Ga7ed6t_vaXrjPGYsEwe-65" value="&lt;font style=&quot;font-size: 10px&quot;&gt;Feed Forward&lt;/font&gt;" style="text;html=1;strokeColor=none;fillColor=none;align=center;verticalAlign=middle;whiteSpace=wrap;rounded=0;fontFamily=Georgia;strokeWidth=1.5;fontStyle=1" vertex="1" parent="1">
          <mxGeometry x="571" y="441.25" width="50" height="20" as="geometry" />
        </mxCell>
        <mxCell id="Ga7ed6t_vaXrjPGYsEwe-66" value="LayerNorm" style="text;html=1;align=center;verticalAlign=middle;resizable=0;points=[];autosize=1;strokeColor=#b46504;fillColor=#fad7ac;fontFamily=Georgia;strokeWidth=1.5;fontStyle=1" vertex="1" parent="1">
          <mxGeometry x="574" y="374.75" width="85" height="18" as="geometry" />
        </mxCell>
        <mxCell id="Ga7ed6t_vaXrjPGYsEwe-67" value="&lt;i&gt;×&lt;/i&gt;&amp;nbsp;&amp;nbsp;" style="text;html=1;strokeColor=none;fillColor=none;align=center;verticalAlign=middle;whiteSpace=wrap;rounded=0;fontFamily=Georgia;strokeWidth=1.5;fontStyle=1" vertex="1" parent="1">
          <mxGeometry x="626" y="436.5" width="23" height="24.5" as="geometry" />
        </mxCell>
        <mxCell id="Ga7ed6t_vaXrjPGYsEwe-68" value="" style="shape=partialRectangle;whiteSpace=wrap;html=1;bottom=1;right=1;left=1;top=0;fillColor=none;routingCenterX=-0.5;fontFamily=Georgia;strokeWidth=1.5;rotation=90;fontSize=10;strokeColor=#FF33FF;fontStyle=1" vertex="1" parent="1">
          <mxGeometry x="671" y="449.37" width="40" height="3.75" as="geometry" />
        </mxCell>
        <mxCell id="Ga7ed6t_vaXrjPGYsEwe-69" value="&lt;font color=&quot;#ff33ff&quot;&gt;λ1&amp;nbsp;0&amp;nbsp;0&lt;br style=&quot;font-size: 10px&quot;&gt;0&amp;nbsp; ... 0&lt;br style=&quot;font-size: 10px&quot;&gt;0&amp;nbsp;0&amp;nbsp;λn&lt;/font&gt;" style="text;html=1;strokeColor=#FFFFFF;fillColor=none;align=center;verticalAlign=middle;whiteSpace=wrap;rounded=0;fontFamily=Georgia;fontSize=10;" vertex="1" parent="1">
          <mxGeometry x="691" y="431.25" width="40" height="40" as="geometry" />
        </mxCell>
        <mxCell id="Ga7ed6t_vaXrjPGYsEwe-70" value="" style="shape=partialRectangle;whiteSpace=wrap;html=1;bottom=1;right=1;left=1;top=0;fillColor=none;routingCenterX=-0.5;fontFamily=Georgia;strokeWidth=1.5;rotation=-90;fontSize=10;strokeColor=#FF33FF;" vertex="1" parent="1">
          <mxGeometry x="713.5" y="449.37" width="40" height="3.75" as="geometry" />
        </mxCell>
        <mxCell id="Ga7ed6t_vaXrjPGYsEwe-71" value="" style="shape=singleArrow;direction=north;whiteSpace=wrap;html=1;fontFamily=Georgia;fontSize=10;strokeColor=#36393d;strokeWidth=1.5;rotation=-90;fillColor=#eeeeee;fontStyle=1" vertex="1" parent="1">
          <mxGeometry x="661" y="429.75" width="18" height="39" as="geometry" />
        </mxCell>
        <mxCell id="Ga7ed6t_vaXrjPGYsEwe-72" value="（a）" style="text;html=1;strokeColor=none;fillColor=none;align=center;verticalAlign=middle;whiteSpace=wrap;rounded=0;fontFamily=Georgia;fontSize=10;fontColor=#000000;" vertex="1" parent="1">
          <mxGeometry x="239.16000000000003" y="660.75" width="99.42" height="30" as="geometry" />
        </mxCell>
        <mxCell id="Ga7ed6t_vaXrjPGYsEwe-73" value="（b）" style="text;html=1;strokeColor=none;fillColor=none;align=center;verticalAlign=middle;whiteSpace=wrap;rounded=0;fontFamily=Georgia;fontSize=10;fontColor=#000000;" vertex="1" parent="1">
          <mxGeometry x="401.29" y="660.75" width="99.42" height="30" as="geometry" />
        </mxCell>
        <mxCell id="Ga7ed6t_vaXrjPGYsEwe-74" value="（c）" style="text;html=1;strokeColor=none;fillColor=none;align=center;verticalAlign=middle;whiteSpace=wrap;rounded=0;fontFamily=Georgia;fontSize=10;fontColor=#000000;" vertex="1" parent="1">
          <mxGeometry x="561.58" y="660.75" width="99.42" height="30" as="geometry" />
        </mxCell>
        <mxCell id="Ga7ed6t_vaXrjPGYsEwe-75" value="N&lt;i style=&quot;font-size: 12px ; font-weight: 700&quot;&gt;×&lt;/i&gt;" style="text;html=1;strokeColor=none;fillColor=none;align=center;verticalAlign=middle;whiteSpace=wrap;rounded=0;fontFamily=Georgia;fontSize=10;fontColor=#000000;" vertex="1" parent="1">
          <mxGeometry x="170" y="453.12" width="38" height="30" as="geometry" />
        </mxCell>
      </root>
    </mxGraphModel>
  </diagram>
  <diagram id="5_GzNKvqKDMdGKg54KhP" name="ViT-SA">
    <mxGraphModel dx="2062" dy="1130" grid="0" gridSize="10" guides="1" tooltips="1" connect="1" arrows="1" fold="1" page="0" pageScale="1" pageWidth="827" pageHeight="1169" math="0" shadow="0">
      <root>
        <mxCell id="0" />
        <mxCell id="1" parent="0" />
        <mxCell id="WJNMcENLBMkizoCB--Eb-47" value="" style="whiteSpace=wrap;html=1;aspect=fixed;fillColor=#b1ddf0;strokeColor=#10739E;" vertex="1" parent="1">
          <mxGeometry x="80" y="240" width="320" height="320" as="geometry" />
        </mxCell>
        <mxCell id="WJNMcENLBMkizoCB--Eb-2" value="" style="rounded=0;whiteSpace=wrap;html=1;fillColor=#fad9d5;strokeColor=#ae4132;" vertex="1" parent="1">
          <mxGeometry x="427" y="322.5" width="40" height="40" as="geometry" />
        </mxCell>
        <mxCell id="WJNMcENLBMkizoCB--Eb-3" value="" style="endArrow=none;html=1;rounded=0;" edge="1" parent="1">
          <mxGeometry width="50" height="50" relative="1" as="geometry">
            <mxPoint x="467" y="362.5" as="sourcePoint" />
            <mxPoint x="467" y="322.5" as="targetPoint" />
          </mxGeometry>
        </mxCell>
        <mxCell id="WJNMcENLBMkizoCB--Eb-4" value="" style="endArrow=none;html=1;rounded=0;" edge="1" parent="1">
          <mxGeometry width="50" height="50" relative="1" as="geometry">
            <mxPoint x="507" y="362.5" as="sourcePoint" />
            <mxPoint x="507" y="322.5" as="targetPoint" />
          </mxGeometry>
        </mxCell>
        <mxCell id="WJNMcENLBMkizoCB--Eb-5" value="" style="endArrow=none;html=1;rounded=0;" edge="1" parent="1">
          <mxGeometry width="50" height="50" relative="1" as="geometry">
            <mxPoint x="547" y="362.5" as="sourcePoint" />
            <mxPoint x="547" y="322.5" as="targetPoint" />
          </mxGeometry>
        </mxCell>
        <mxCell id="WJNMcENLBMkizoCB--Eb-6" value="" style="endArrow=none;html=1;rounded=0;" edge="1" parent="1">
          <mxGeometry width="50" height="50" relative="1" as="geometry">
            <mxPoint x="587" y="362.5" as="sourcePoint" />
            <mxPoint x="587" y="322.5" as="targetPoint" />
          </mxGeometry>
        </mxCell>
        <mxCell id="WJNMcENLBMkizoCB--Eb-7" value="" style="endArrow=none;html=1;rounded=0;" edge="1" parent="1">
          <mxGeometry width="50" height="50" relative="1" as="geometry">
            <mxPoint x="627" y="362.5" as="sourcePoint" />
            <mxPoint x="627" y="322.5" as="targetPoint" />
          </mxGeometry>
        </mxCell>
        <mxCell id="WJNMcENLBMkizoCB--Eb-8" value="" style="endArrow=none;html=1;rounded=0;" edge="1" parent="1">
          <mxGeometry width="50" height="50" relative="1" as="geometry">
            <mxPoint x="667" y="362.5" as="sourcePoint" />
            <mxPoint x="667" y="322.5" as="targetPoint" />
          </mxGeometry>
        </mxCell>
        <mxCell id="WJNMcENLBMkizoCB--Eb-9" value="" style="endArrow=none;html=1;rounded=0;" edge="1" parent="1">
          <mxGeometry width="50" height="50" relative="1" as="geometry">
            <mxPoint x="707" y="362.5" as="sourcePoint" />
            <mxPoint x="707" y="322.5" as="targetPoint" />
          </mxGeometry>
        </mxCell>
        <mxCell id="WJNMcENLBMkizoCB--Eb-10" value="" style="endArrow=none;html=1;rounded=0;" edge="1" parent="1">
          <mxGeometry width="50" height="50" relative="1" as="geometry">
            <mxPoint x="747" y="362.5" as="sourcePoint" />
            <mxPoint x="747" y="322.5" as="targetPoint" />
          </mxGeometry>
        </mxCell>
        <mxCell id="WJNMcENLBMkizoCB--Eb-11" value="" style="rounded=0;whiteSpace=wrap;html=1;fillColor=#fad9d5;strokeColor=#ae4132;" vertex="1" parent="1">
          <mxGeometry x="427" y="442.5" width="40" height="40" as="geometry" />
        </mxCell>
        <mxCell id="WJNMcENLBMkizoCB--Eb-12" value="" style="endArrow=none;html=1;rounded=0;" edge="1" parent="1">
          <mxGeometry width="50" height="50" relative="1" as="geometry">
            <mxPoint x="467" y="482.5" as="sourcePoint" />
            <mxPoint x="467" y="442.5" as="targetPoint" />
          </mxGeometry>
        </mxCell>
        <mxCell id="WJNMcENLBMkizoCB--Eb-13" value="" style="endArrow=none;html=1;rounded=0;" edge="1" parent="1">
          <mxGeometry width="50" height="50" relative="1" as="geometry">
            <mxPoint x="507" y="482.5" as="sourcePoint" />
            <mxPoint x="507" y="442.5" as="targetPoint" />
          </mxGeometry>
        </mxCell>
        <mxCell id="WJNMcENLBMkizoCB--Eb-14" value="" style="endArrow=none;html=1;rounded=0;" edge="1" parent="1">
          <mxGeometry width="50" height="50" relative="1" as="geometry">
            <mxPoint x="547" y="482.5" as="sourcePoint" />
            <mxPoint x="547" y="442.5" as="targetPoint" />
          </mxGeometry>
        </mxCell>
        <mxCell id="WJNMcENLBMkizoCB--Eb-15" value="" style="endArrow=none;html=1;rounded=0;" edge="1" parent="1">
          <mxGeometry width="50" height="50" relative="1" as="geometry">
            <mxPoint x="587" y="482.5" as="sourcePoint" />
            <mxPoint x="587" y="442.5" as="targetPoint" />
          </mxGeometry>
        </mxCell>
        <mxCell id="WJNMcENLBMkizoCB--Eb-16" value="" style="endArrow=none;html=1;rounded=0;" edge="1" parent="1">
          <mxGeometry width="50" height="50" relative="1" as="geometry">
            <mxPoint x="627" y="482.5" as="sourcePoint" />
            <mxPoint x="627" y="442.5" as="targetPoint" />
          </mxGeometry>
        </mxCell>
        <mxCell id="WJNMcENLBMkizoCB--Eb-17" value="" style="endArrow=none;html=1;rounded=0;" edge="1" parent="1">
          <mxGeometry width="50" height="50" relative="1" as="geometry">
            <mxPoint x="667" y="482.5" as="sourcePoint" />
            <mxPoint x="667" y="442.5" as="targetPoint" />
          </mxGeometry>
        </mxCell>
        <mxCell id="WJNMcENLBMkizoCB--Eb-18" value="" style="endArrow=none;html=1;rounded=0;" edge="1" parent="1">
          <mxGeometry width="50" height="50" relative="1" as="geometry">
            <mxPoint x="707" y="482.5" as="sourcePoint" />
            <mxPoint x="707" y="442.5" as="targetPoint" />
          </mxGeometry>
        </mxCell>
        <mxCell id="WJNMcENLBMkizoCB--Eb-19" value="" style="endArrow=none;html=1;rounded=0;" edge="1" parent="1">
          <mxGeometry width="50" height="50" relative="1" as="geometry">
            <mxPoint x="747" y="482.5" as="sourcePoint" />
            <mxPoint x="747" y="442.5" as="targetPoint" />
          </mxGeometry>
        </mxCell>
        <mxCell id="WJNMcENLBMkizoCB--Eb-22" value="" style="rounded=0;whiteSpace=wrap;html=1;fillColor=#fad9d5;strokeColor=#ae4132;" vertex="1" parent="1">
          <mxGeometry x="467" y="322.5" width="40" height="40" as="geometry" />
        </mxCell>
        <mxCell id="WJNMcENLBMkizoCB--Eb-23" value="" style="rounded=0;whiteSpace=wrap;html=1;fillColor=#fad9d5;strokeColor=#ae4132;" vertex="1" parent="1">
          <mxGeometry x="507" y="322.5" width="40" height="40" as="geometry" />
        </mxCell>
        <mxCell id="WJNMcENLBMkizoCB--Eb-24" value="" style="rounded=0;whiteSpace=wrap;html=1;fillColor=#fad9d5;strokeColor=#ae4132;" vertex="1" parent="1">
          <mxGeometry x="547" y="322.5" width="40" height="40" as="geometry" />
        </mxCell>
        <mxCell id="WJNMcENLBMkizoCB--Eb-38" style="rounded=0;orthogonalLoop=1;jettySize=auto;html=1;entryX=0.5;entryY=0;entryDx=0;entryDy=0;exitX=0.5;exitY=1;exitDx=0;exitDy=0;" edge="1" parent="1" source="WJNMcENLBMkizoCB--Eb-25" target="WJNMcENLBMkizoCB--Eb-11">
          <mxGeometry relative="1" as="geometry" />
        </mxCell>
        <mxCell id="WJNMcENLBMkizoCB--Eb-39" style="edgeStyle=none;rounded=0;orthogonalLoop=1;jettySize=auto;html=1;entryX=0.5;entryY=0;entryDx=0;entryDy=0;exitX=0.5;exitY=1;exitDx=0;exitDy=0;" edge="1" parent="1" source="WJNMcENLBMkizoCB--Eb-25" target="WJNMcENLBMkizoCB--Eb-29">
          <mxGeometry relative="1" as="geometry" />
        </mxCell>
        <mxCell id="WJNMcENLBMkizoCB--Eb-40" style="edgeStyle=none;rounded=0;orthogonalLoop=1;jettySize=auto;html=1;entryX=0.5;entryY=0;entryDx=0;entryDy=0;exitX=0.5;exitY=1;exitDx=0;exitDy=0;" edge="1" parent="1" source="WJNMcENLBMkizoCB--Eb-25" target="WJNMcENLBMkizoCB--Eb-30">
          <mxGeometry relative="1" as="geometry" />
        </mxCell>
        <mxCell id="WJNMcENLBMkizoCB--Eb-41" style="edgeStyle=none;rounded=0;orthogonalLoop=1;jettySize=auto;html=1;entryX=0.5;entryY=0;entryDx=0;entryDy=0;" edge="1" parent="1" target="WJNMcENLBMkizoCB--Eb-31">
          <mxGeometry relative="1" as="geometry">
            <mxPoint x="607" y="362.5" as="sourcePoint" />
          </mxGeometry>
        </mxCell>
        <mxCell id="WJNMcENLBMkizoCB--Eb-42" style="edgeStyle=none;rounded=0;orthogonalLoop=1;jettySize=auto;html=1;entryX=0.5;entryY=0;entryDx=0;entryDy=0;fillColor=#e51400;strokeColor=#B20000;strokeWidth=2;" edge="1" parent="1" source="WJNMcENLBMkizoCB--Eb-25" target="WJNMcENLBMkizoCB--Eb-32">
          <mxGeometry relative="1" as="geometry" />
        </mxCell>
        <mxCell id="WJNMcENLBMkizoCB--Eb-43" style="edgeStyle=none;rounded=0;orthogonalLoop=1;jettySize=auto;html=1;entryX=0.5;entryY=0;entryDx=0;entryDy=0;exitX=0.5;exitY=1;exitDx=0;exitDy=0;" edge="1" parent="1" source="WJNMcENLBMkizoCB--Eb-25" target="WJNMcENLBMkizoCB--Eb-33">
          <mxGeometry relative="1" as="geometry" />
        </mxCell>
        <mxCell id="WJNMcENLBMkizoCB--Eb-44" style="edgeStyle=none;rounded=0;orthogonalLoop=1;jettySize=auto;html=1;entryX=0.5;entryY=0;entryDx=0;entryDy=0;exitX=0.5;exitY=1;exitDx=0;exitDy=0;" edge="1" parent="1" source="WJNMcENLBMkizoCB--Eb-25" target="WJNMcENLBMkizoCB--Eb-34">
          <mxGeometry relative="1" as="geometry" />
        </mxCell>
        <mxCell id="WJNMcENLBMkizoCB--Eb-45" style="edgeStyle=none;rounded=0;orthogonalLoop=1;jettySize=auto;html=1;entryX=0.5;entryY=0;entryDx=0;entryDy=0;exitX=0.5;exitY=1;exitDx=0;exitDy=0;" edge="1" parent="1" source="WJNMcENLBMkizoCB--Eb-25" target="WJNMcENLBMkizoCB--Eb-35">
          <mxGeometry relative="1" as="geometry" />
        </mxCell>
        <mxCell id="WJNMcENLBMkizoCB--Eb-46" style="edgeStyle=none;rounded=0;orthogonalLoop=1;jettySize=auto;html=1;entryX=0.5;entryY=0;entryDx=0;entryDy=0;exitX=0.5;exitY=1;exitDx=0;exitDy=0;" edge="1" parent="1" source="WJNMcENLBMkizoCB--Eb-25" target="WJNMcENLBMkizoCB--Eb-36">
          <mxGeometry relative="1" as="geometry" />
        </mxCell>
        <mxCell id="WJNMcENLBMkizoCB--Eb-25" value="" style="rounded=0;whiteSpace=wrap;html=1;fillColor=#E68A8A;strokeColor=#b85450;" vertex="1" parent="1">
          <mxGeometry x="587" y="322.5" width="40" height="40" as="geometry" />
        </mxCell>
        <mxCell id="WJNMcENLBMkizoCB--Eb-26" value="" style="rounded=0;whiteSpace=wrap;html=1;fillColor=#fad9d5;strokeColor=#ae4132;" vertex="1" parent="1">
          <mxGeometry x="627" y="322.5" width="40" height="40" as="geometry" />
        </mxCell>
        <mxCell id="WJNMcENLBMkizoCB--Eb-27" value="" style="rounded=0;whiteSpace=wrap;html=1;fillColor=#fad9d5;strokeColor=#ae4132;" vertex="1" parent="1">
          <mxGeometry x="667" y="322.5" width="40" height="40" as="geometry" />
        </mxCell>
        <mxCell id="WJNMcENLBMkizoCB--Eb-28" value="" style="rounded=0;whiteSpace=wrap;html=1;fillColor=#fad9d5;strokeColor=#ae4132;" vertex="1" parent="1">
          <mxGeometry x="707" y="322.5" width="40" height="40" as="geometry" />
        </mxCell>
        <mxCell id="WJNMcENLBMkizoCB--Eb-29" value="" style="rounded=0;whiteSpace=wrap;html=1;fillColor=#fad9d5;strokeColor=#ae4132;" vertex="1" parent="1">
          <mxGeometry x="467" y="442.5" width="40" height="40" as="geometry" />
        </mxCell>
        <mxCell id="WJNMcENLBMkizoCB--Eb-30" value="" style="rounded=0;whiteSpace=wrap;html=1;fillColor=#fad9d5;strokeColor=#ae4132;" vertex="1" parent="1">
          <mxGeometry x="507" y="442.5" width="40" height="40" as="geometry" />
        </mxCell>
        <mxCell id="WJNMcENLBMkizoCB--Eb-31" value="" style="rounded=0;whiteSpace=wrap;html=1;fillColor=#fad9d5;strokeColor=#ae4132;" vertex="1" parent="1">
          <mxGeometry x="547" y="442.5" width="40" height="40" as="geometry" />
        </mxCell>
        <mxCell id="WJNMcENLBMkizoCB--Eb-32" value="" style="rounded=0;whiteSpace=wrap;html=1;fillColor=#fad9d5;strokeColor=#ae4132;" vertex="1" parent="1">
          <mxGeometry x="587" y="442.5" width="40" height="40" as="geometry" />
        </mxCell>
        <mxCell id="WJNMcENLBMkizoCB--Eb-33" value="" style="rounded=0;whiteSpace=wrap;html=1;fillColor=#fad9d5;strokeColor=#ae4132;" vertex="1" parent="1">
          <mxGeometry x="627" y="442.5" width="40" height="40" as="geometry" />
        </mxCell>
        <mxCell id="WJNMcENLBMkizoCB--Eb-34" value="" style="rounded=0;whiteSpace=wrap;html=1;fillColor=#fad9d5;strokeColor=#ae4132;" vertex="1" parent="1">
          <mxGeometry x="667" y="442.5" width="40" height="40" as="geometry" />
        </mxCell>
        <mxCell id="WJNMcENLBMkizoCB--Eb-35" value="" style="rounded=0;whiteSpace=wrap;html=1;fillColor=#fad9d5;strokeColor=#ae4132;" vertex="1" parent="1">
          <mxGeometry x="707" y="442.5" width="40" height="40" as="geometry" />
        </mxCell>
        <mxCell id="WJNMcENLBMkizoCB--Eb-36" value="" style="rounded=0;whiteSpace=wrap;html=1;fillColor=#fad9d5;strokeColor=#ae4132;" vertex="1" parent="1">
          <mxGeometry x="747" y="442.5" width="40" height="40" as="geometry" />
        </mxCell>
        <mxCell id="WJNMcENLBMkizoCB--Eb-37" value="" style="rounded=0;whiteSpace=wrap;html=1;fillColor=#fad9d5;strokeColor=#ae4132;" vertex="1" parent="1">
          <mxGeometry x="747" y="322.5" width="40" height="40" as="geometry" />
        </mxCell>
        <mxCell id="WJNMcENLBMkizoCB--Eb-48" value="" style="whiteSpace=wrap;html=1;aspect=fixed;fillColor=#66B2FF;strokeColor=#006EAF;fontColor=#ffffff;" vertex="1" parent="1">
          <mxGeometry x="80" y="240" width="40" height="40" as="geometry" />
        </mxCell>
        <mxCell id="WJNMcENLBMkizoCB--Eb-51" value="" style="whiteSpace=wrap;html=1;aspect=fixed;fillColor=#66B2FF;strokeColor=#006EAF;fontColor=#ffffff;" vertex="1" parent="1">
          <mxGeometry x="120" y="280" width="40" height="40" as="geometry" />
        </mxCell>
        <mxCell id="WJNMcENLBMkizoCB--Eb-52" value="" style="whiteSpace=wrap;html=1;aspect=fixed;fillColor=#66B2FF;strokeColor=#006EAF;fontColor=#ffffff;" vertex="1" parent="1">
          <mxGeometry x="160" y="320" width="40" height="40" as="geometry" />
        </mxCell>
        <mxCell id="WJNMcENLBMkizoCB--Eb-53" value="" style="whiteSpace=wrap;html=1;aspect=fixed;fillColor=#66B2FF;strokeColor=#006EAF;fontColor=#ffffff;" vertex="1" parent="1">
          <mxGeometry x="200" y="360" width="40" height="40" as="geometry" />
        </mxCell>
        <mxCell id="WJNMcENLBMkizoCB--Eb-54" value="" style="whiteSpace=wrap;html=1;aspect=fixed;fillColor=#66B2FF;strokeColor=#006EAF;fontColor=#ffffff;" vertex="1" parent="1">
          <mxGeometry x="240" y="400" width="40" height="40" as="geometry" />
        </mxCell>
        <mxCell id="WJNMcENLBMkizoCB--Eb-55" value="" style="whiteSpace=wrap;html=1;aspect=fixed;fillColor=#66B2FF;strokeColor=#006EAF;fontColor=#ffffff;" vertex="1" parent="1">
          <mxGeometry x="280" y="440" width="40" height="40" as="geometry" />
        </mxCell>
        <mxCell id="WJNMcENLBMkizoCB--Eb-56" value="" style="whiteSpace=wrap;html=1;aspect=fixed;fillColor=#66B2FF;strokeColor=#006EAF;fontColor=#ffffff;" vertex="1" parent="1">
          <mxGeometry x="320" y="480" width="40" height="40" as="geometry" />
        </mxCell>
        <mxCell id="WJNMcENLBMkizoCB--Eb-57" value="" style="whiteSpace=wrap;html=1;aspect=fixed;fillColor=#66B2FF;strokeColor=#006EAF;fontColor=#ffffff;" vertex="1" parent="1">
          <mxGeometry x="360" y="520" width="40" height="40" as="geometry" />
        </mxCell>
        <mxCell id="WJNMcENLBMkizoCB--Eb-58" value="" style="endArrow=none;html=1;rounded=0;endSize=8;strokeColor=#66B2FF;strokeWidth=2;exitX=0;exitY=1;exitDx=0;exitDy=0;entryX=0.997;entryY=0.125;entryDx=0;entryDy=0;entryPerimeter=0;" edge="1" parent="1" source="WJNMcENLBMkizoCB--Eb-48" target="WJNMcENLBMkizoCB--Eb-47">
          <mxGeometry width="50" height="50" relative="1" as="geometry">
            <mxPoint x="370" y="580" as="sourcePoint" />
            <mxPoint x="490" y="580" as="targetPoint" />
          </mxGeometry>
        </mxCell>
        <mxCell id="WJNMcENLBMkizoCB--Eb-59" value="" style="endArrow=none;html=1;rounded=0;endSize=8;strokeColor=#66B2FF;strokeWidth=2;exitX=0;exitY=1;exitDx=0;exitDy=0;entryX=0.997;entryY=0.125;entryDx=0;entryDy=0;entryPerimeter=0;" edge="1" parent="1">
          <mxGeometry width="50" height="50" relative="1" as="geometry">
            <mxPoint x="80" y="320" as="sourcePoint" />
            <mxPoint x="399.03999999999996" y="320" as="targetPoint" />
          </mxGeometry>
        </mxCell>
        <mxCell id="WJNMcENLBMkizoCB--Eb-60" value="" style="endArrow=none;html=1;rounded=0;endSize=8;strokeColor=#66B2FF;strokeWidth=2;exitX=0;exitY=1;exitDx=0;exitDy=0;entryX=0.997;entryY=0.125;entryDx=0;entryDy=0;entryPerimeter=0;" edge="1" parent="1">
          <mxGeometry width="50" height="50" relative="1" as="geometry">
            <mxPoint x="80" y="360" as="sourcePoint" />
            <mxPoint x="399.03999999999996" y="360" as="targetPoint" />
          </mxGeometry>
        </mxCell>
        <mxCell id="WJNMcENLBMkizoCB--Eb-61" value="" style="endArrow=none;html=1;rounded=0;endSize=8;strokeColor=#66B2FF;strokeWidth=2;exitX=0;exitY=1;exitDx=0;exitDy=0;entryX=0.997;entryY=0.125;entryDx=0;entryDy=0;entryPerimeter=0;" edge="1" parent="1">
          <mxGeometry width="50" height="50" relative="1" as="geometry">
            <mxPoint x="80" y="399.5" as="sourcePoint" />
            <mxPoint x="399.03999999999996" y="399.5" as="targetPoint" />
          </mxGeometry>
        </mxCell>
        <mxCell id="WJNMcENLBMkizoCB--Eb-62" value="" style="endArrow=none;html=1;rounded=0;endSize=8;strokeColor=#66B2FF;strokeWidth=2;exitX=0;exitY=1;exitDx=0;exitDy=0;entryX=0.997;entryY=0.125;entryDx=0;entryDy=0;entryPerimeter=0;" edge="1" parent="1">
          <mxGeometry width="50" height="50" relative="1" as="geometry">
            <mxPoint x="80.96000000000001" y="440" as="sourcePoint" />
            <mxPoint x="399.99999999999994" y="440" as="targetPoint" />
          </mxGeometry>
        </mxCell>
        <mxCell id="WJNMcENLBMkizoCB--Eb-63" value="" style="endArrow=none;html=1;rounded=0;endSize=8;strokeColor=#66B2FF;strokeWidth=2;exitX=0;exitY=1;exitDx=0;exitDy=0;entryX=0.997;entryY=0.125;entryDx=0;entryDy=0;entryPerimeter=0;" edge="1" parent="1">
          <mxGeometry width="50" height="50" relative="1" as="geometry">
            <mxPoint x="80" y="480" as="sourcePoint" />
            <mxPoint x="399.03999999999996" y="480" as="targetPoint" />
          </mxGeometry>
        </mxCell>
        <mxCell id="WJNMcENLBMkizoCB--Eb-64" value="" style="endArrow=none;html=1;rounded=0;endSize=8;strokeColor=#66B2FF;strokeWidth=2;exitX=0;exitY=1;exitDx=0;exitDy=0;entryX=0.997;entryY=0.125;entryDx=0;entryDy=0;entryPerimeter=0;" edge="1" parent="1">
          <mxGeometry width="50" height="50" relative="1" as="geometry">
            <mxPoint x="80" y="519" as="sourcePoint" />
            <mxPoint x="399.03999999999996" y="519" as="targetPoint" />
          </mxGeometry>
        </mxCell>
        <mxCell id="WJNMcENLBMkizoCB--Eb-65" value="" style="endArrow=none;html=1;rounded=0;endSize=8;strokeColor=#66B2FF;strokeWidth=2;exitX=1;exitY=0;exitDx=0;exitDy=0;" edge="1" parent="1" source="WJNMcENLBMkizoCB--Eb-48">
          <mxGeometry width="50" height="50" relative="1" as="geometry">
            <mxPoint x="150" y="350" as="sourcePoint" />
            <mxPoint x="120" y="560" as="targetPoint" />
          </mxGeometry>
        </mxCell>
        <mxCell id="WJNMcENLBMkizoCB--Eb-66" value="" style="endArrow=none;html=1;rounded=0;endSize=8;strokeColor=#66B2FF;strokeWidth=2;exitX=1;exitY=0;exitDx=0;exitDy=0;" edge="1" parent="1">
          <mxGeometry width="50" height="50" relative="1" as="geometry">
            <mxPoint x="160" y="240" as="sourcePoint" />
            <mxPoint x="160" y="560" as="targetPoint" />
          </mxGeometry>
        </mxCell>
        <mxCell id="WJNMcENLBMkizoCB--Eb-67" value="" style="endArrow=none;html=1;rounded=0;endSize=8;strokeColor=#66B2FF;strokeWidth=2;exitX=1;exitY=0;exitDx=0;exitDy=0;" edge="1" parent="1">
          <mxGeometry width="50" height="50" relative="1" as="geometry">
            <mxPoint x="200" y="240" as="sourcePoint" />
            <mxPoint x="200" y="560" as="targetPoint" />
          </mxGeometry>
        </mxCell>
        <mxCell id="WJNMcENLBMkizoCB--Eb-68" value="" style="endArrow=none;html=1;rounded=0;endSize=8;strokeColor=#66B2FF;strokeWidth=2;exitX=1;exitY=0;exitDx=0;exitDy=0;" edge="1" parent="1">
          <mxGeometry width="50" height="50" relative="1" as="geometry">
            <mxPoint x="240" y="240" as="sourcePoint" />
            <mxPoint x="240" y="560" as="targetPoint" />
          </mxGeometry>
        </mxCell>
        <mxCell id="WJNMcENLBMkizoCB--Eb-69" value="" style="endArrow=none;html=1;rounded=0;endSize=8;strokeColor=#66B2FF;strokeWidth=2;exitX=1;exitY=0;exitDx=0;exitDy=0;" edge="1" parent="1">
          <mxGeometry width="50" height="50" relative="1" as="geometry">
            <mxPoint x="280" y="240" as="sourcePoint" />
            <mxPoint x="280" y="560" as="targetPoint" />
          </mxGeometry>
        </mxCell>
        <mxCell id="WJNMcENLBMkizoCB--Eb-70" value="" style="endArrow=none;html=1;rounded=0;endSize=8;strokeColor=#66B2FF;strokeWidth=2;exitX=1;exitY=0;exitDx=0;exitDy=0;" edge="1" parent="1">
          <mxGeometry width="50" height="50" relative="1" as="geometry">
            <mxPoint x="320" y="240" as="sourcePoint" />
            <mxPoint x="320" y="560" as="targetPoint" />
          </mxGeometry>
        </mxCell>
        <mxCell id="WJNMcENLBMkizoCB--Eb-71" value="" style="endArrow=none;html=1;rounded=0;endSize=8;strokeColor=#66B2FF;strokeWidth=2;exitX=1;exitY=0;exitDx=0;exitDy=0;" edge="1" parent="1">
          <mxGeometry width="50" height="50" relative="1" as="geometry">
            <mxPoint x="359" y="240" as="sourcePoint" />
            <mxPoint x="359" y="560" as="targetPoint" />
          </mxGeometry>
        </mxCell>
        <mxCell id="WJNMcENLBMkizoCB--Eb-72" value="&lt;font face=&quot;Georgia&quot; size=&quot;1&quot;&gt;&lt;b style=&quot;font-size: 17px&quot;&gt;(a)&lt;/b&gt;&lt;/font&gt;" style="text;html=1;strokeColor=none;fillColor=none;align=center;verticalAlign=middle;whiteSpace=wrap;rounded=0;" vertex="1" parent="1">
          <mxGeometry x="210" y="580" width="60" height="30" as="geometry" />
        </mxCell>
        <mxCell id="WJNMcENLBMkizoCB--Eb-73" value="&lt;b&gt;&lt;font face=&quot;Georgia&quot; style=&quot;font-size: 17px&quot;&gt;(b)&lt;/font&gt;&lt;/b&gt;" style="text;html=1;strokeColor=none;fillColor=none;align=center;verticalAlign=middle;whiteSpace=wrap;rounded=0;" vertex="1" parent="1">
          <mxGeometry x="590" y="580" width="60" height="30" as="geometry" />
        </mxCell>
        <mxCell id="WJNMcENLBMkizoCB--Eb-74" value="&lt;font face=&quot;Georgia&quot; size=&quot;1&quot; color=&quot;#ffffff&quot;&gt;&lt;b style=&quot;font-size: 17px&quot;&gt;(a)&lt;/b&gt;&lt;/font&gt;" style="text;html=1;strokeColor=none;fillColor=none;align=center;verticalAlign=middle;whiteSpace=wrap;rounded=0;" vertex="1" parent="1">
          <mxGeometry x="37" y="380" width="60" height="30" as="geometry" />
        </mxCell>
        <mxCell id="WJNMcENLBMkizoCB--Eb-75" value="&lt;font face=&quot;Georgia&quot; size=&quot;1&quot; color=&quot;#ffffff&quot;&gt;&lt;b style=&quot;font-size: 17px&quot;&gt;(a)&lt;/b&gt;&lt;/font&gt;" style="text;html=1;strokeColor=none;fillColor=none;align=center;verticalAlign=middle;whiteSpace=wrap;rounded=0;" vertex="1" parent="1">
          <mxGeometry x="210" y="210" width="60" height="30" as="geometry" />
        </mxCell>
        <mxCell id="WJNMcENLBMkizoCB--Eb-76" value="&lt;font face=&quot;Georgia&quot; size=&quot;1&quot; color=&quot;#ffffff&quot;&gt;&lt;b style=&quot;font-size: 17px&quot;&gt;(a)&lt;/b&gt;&lt;/font&gt;" style="text;html=1;strokeColor=none;fillColor=none;align=center;verticalAlign=middle;whiteSpace=wrap;rounded=0;" vertex="1" parent="1">
          <mxGeometry x="761" y="370" width="60" height="30" as="geometry" />
        </mxCell>
      </root>
    </mxGraphModel>
  </diagram>
</mxfile>
